<svg width="161" height="167" viewBox="0 0 161 167" fill="none" xmlns="http://www.w3.org/2000/svg">
<path fill-rule="evenodd" clip-rule="evenodd" d="M76.0078 8.33423V33.5569C47.6202 33.5569 24.573 56.604 24.573 84.9917C24.573 113.38 47.6202 136.427 76.0078 136.427V160.682C34.0427 160.592 0 126.494 0 84.508C0 42.522 34.0427 8.42409 76.0078 8.33423Z" fill="#FAFAFB"/>
<path fill-rule="evenodd" clip-rule="evenodd" d="M20.3398 140.677L39.6384 121.379C49.6748 131.415 62.8418 136.434 76.0083 136.434V163.722C54.2993 163.678 34.6286 154.881 20.3398 140.677Z" fill="#3DD598"/>
<path fill-rule="evenodd" clip-rule="evenodd" d="M76.0078 0C122.916 0 161 38.0836 161 84.9918H127.443C127.443 56.6041 104.395 33.5569 76.0078 33.5569V0Z" fill="#FFC60D"/>
<path fill-rule="evenodd" clip-rule="evenodd" d="M158.588 84.9917C158.328 130.256 121.499 166.924 76.1743 166.924C76.1188 166.924 76.0633 166.923 76.0078 166.923V136.427C104.395 136.427 127.443 113.379 127.443 84.9917H158.588Z" fill="#3F90F2"/>
<path fill-rule="evenodd" clip-rule="evenodd" d="M32.9657 75.6654C32.9657 75.6654 38.4844 68.9917 46.6984 74.8954C46.6984 74.8954 47.9131 83.8236 53.7552 94.2976C55.987 98.2992 58.1921 97.9844 58.491 99.4306C59.0164 101.971 60.3202 102.108 62.1759 103.621C62.1759 103.621 63.0167 124.555 42.4685 123.272C42.4685 123.272 22.955 102.232 32.9657 75.6654Z" fill="#F2F8F9"/>
<path fill-rule="evenodd" clip-rule="evenodd" d="M47.3285 74.6316L44.9133 73.2578C43.3428 88.106 51.7946 104.478 62.1804 107.43C63.8104 107.187 65.2022 106.586 65.8617 105.277C66.3552 105.189 66.8914 105.042 67.4738 104.823C67.4738 104.823 74.8315 101.001 71.696 83.2337C71.696 83.2337 69.4688 84.2029 67.1812 83.1502C67.1812 83.1502 65.5375 93.3193 60.8339 99.0381C51.9926 92.8656 47.3285 74.6316 47.3285 74.6316Z" fill="#5C7594"/>
<path fill-rule="evenodd" clip-rule="evenodd" d="M109.649 112.146C109.649 112.146 111.855 114.498 114.292 114.9C114.292 114.9 113.685 117.391 111.032 117.146C111.032 117.146 109.759 116.571 107.678 114.714L109.649 112.146Z" fill="#FFC7C0"/>
<path fill-rule="evenodd" clip-rule="evenodd" d="M54.7144 114.893C54.7144 114.893 68.974 82.3068 78.399 83.2379C88.857 84.2711 111.317 112.905 111.317 112.905C111.317 112.905 111.057 116.172 108.61 115.894C108.61 115.894 90.0899 107.276 80.0015 93.2814L61.0293 122.339C61.0293 122.339 54.7379 121.931 54.7144 114.893Z" fill="#405C80"/>
<path fill-rule="evenodd" clip-rule="evenodd" d="M47.723 60.537C47.723 60.537 43.9501 67.0462 44.5649 75.4275C44.5649 75.4275 44.9177 80.2376 41.5489 78.9864C41.5489 78.9864 38.0746 77.8422 38.7573 72.457C39.6861 65.1329 43.4276 57.885 43.4276 57.885L47.723 60.537Z" fill="#FFC7C0"/>
<path fill-rule="evenodd" clip-rule="evenodd" d="M45.1417 55.7099C45.1417 55.7099 49.0756 59.602 54.7332 58.9156C54.7332 58.9156 51.9549 66.1762 55.4217 73.7786C48.4071 76.9775 41.4895 71.2244 45.1417 55.7099Z" fill="#FFC7C0"/>
<path fill-rule="evenodd" clip-rule="evenodd" d="M81.9096 144.727C81.9096 144.727 81.1571 147.863 82.1604 150.12C82.1604 150.12 79.7463 150.982 78.4922 148.631C78.4922 148.631 78.2725 147.251 78.6804 144.492L81.9096 144.727Z" fill="#FFC7C0"/>
<path fill-rule="evenodd" clip-rule="evenodd" d="M109.812 117.613C111.806 116.636 113.171 115.112 113.312 112.527L124.649 107.139C125.476 106.622 127.158 107.838 126.31 109.359L114.19 122.322C114.19 122.322 110.908 122.142 109.812 117.613Z" fill="#F2F8F9"/>
<path fill-rule="evenodd" clip-rule="evenodd" d="M114.154 122.081C113.978 122.283 113.998 122.592 114.201 122.768L114.935 123.41C115.138 123.587 115.446 123.566 115.623 123.364L127.918 109.291C128.095 109.089 128.074 108.78 127.872 108.603L127.138 107.962C126.935 107.785 126.627 107.805 126.45 108.008L114.154 122.081Z" fill="#405C80"/>
<path fill-rule="evenodd" clip-rule="evenodd" d="M43.8639 52.7555L43.8412 52.7322C43.8412 52.7322 40.7383 56.3901 40.9476 62.8277C41.7569 64.3723 43.107 65.1983 44.7882 64.6044C44.7882 64.6044 44.8867 62.686 45.9324 60.0822C48.9794 63.0236 53.9913 62.6994 56.2189 61.0776C56.2189 61.0776 57.4519 54.5589 52.3062 55.041C49.8201 55.2737 48.7775 54.317 47.8621 53.4771C46.9 52.5942 46.0785 51.8404 43.8691 52.7323C43.8674 52.74 43.8656 52.7478 43.8639 52.7555Z" fill="#FF6554"/>
<path fill-rule="evenodd" clip-rule="evenodd" d="M44.1326 65.1706C44.1326 65.1706 47.397 72.5102 54.6349 70.1659C54.6349 70.1659 56.1924 73.9272 59.1537 76.4558C59.1537 76.4558 54.9547 80.6368 48.727 77.2233C46.1698 75.8217 43.3442 72.2586 44.1326 65.1706Z" fill="#FF6554"/>
<path fill-rule="evenodd" clip-rule="evenodd" d="M48.2018 114.146C46.852 119.212 48.9952 121.941 51.5759 123.362C51.5759 123.362 67.8223 120.728 77.2568 108.165C74.7515 123.278 74.5255 130.356 77.8166 146.974C77.8166 146.974 80.0851 149.147 82.5923 146.974C82.5923 146.974 89.4523 118.275 86.1815 99.8301C85.8786 98.1212 84.7273 96.6812 83.1957 95.8648C81.6638 95.0486 79.9234 95.1787 78.2387 95.5968C69.9576 97.652 48.2018 114.146 48.2018 114.146Z" fill="#7C99BE"/>
<path fill-rule="evenodd" clip-rule="evenodd" d="M32.9596 75.2958C32.9596 75.2958 21.1259 99.8662 35.3237 126.328C35.3237 126.328 51.3677 131.039 56.2187 115.156C56.2187 115.156 40.8987 106.339 37.8468 72.4572C35.6005 73.2406 33.9967 74.1932 32.9596 75.2958Z" fill="#5C7594"/>
<path fill-rule="evenodd" clip-rule="evenodd" d="M62.3486 103.61L69.6905 103.61C69.6905 104.057 69.328 104.42 68.8809 104.42H63.1582C62.7111 104.42 62.3486 104.057 62.3486 103.61V103.61Z" fill="#C2D5DA"/>
<path fill-rule="evenodd" clip-rule="evenodd" d="M90.1693 83.7855L69.6726 104.211C69.4477 104.435 69.0837 104.434 68.8596 104.209C68.7522 104.102 68.6919 103.956 68.6919 103.804L88.9722 83.5233H88.2503V53.6571H90.1004C90.3923 53.6571 90.629 53.8938 90.629 54.1857V82.9947C90.629 83.3504 90.2816 83.6736 90.1693 83.7855Z" fill="#C2D5DA"/>
<path fill-rule="evenodd" clip-rule="evenodd" d="M89.5718 56.4889C89.5718 54.925 88.3039 53.6571 86.74 53.6571C84.6547 53.6571 82.9642 55.3476 82.9642 57.4329V82.9555H89.5718V56.4889Z" fill="#DDEBEF"/>
<path fill-rule="evenodd" clip-rule="evenodd" d="M88.7788 56.45C88.7788 55.3454 87.8834 54.45 86.7788 54.45H85.7571C84.6525 54.45 83.7571 55.3454 83.7571 56.45V80.2018C83.7571 81.3063 84.6525 82.2018 85.7571 82.2018H86.7788C87.8834 82.2018 88.7788 81.3063 88.7788 80.2018V56.45Z" fill="#F2F8F9"/>
<path fill-rule="evenodd" clip-rule="evenodd" d="M69.5703 102.926C69.0078 103.488 68.2454 103.803 67.4506 103.803H64.3738C63.481 103.803 63.0357 102.722 63.6696 102.093L82.9642 82.9553H89.5718L69.5703 102.926Z" fill="#DDEBEF"/>
<path fill-rule="evenodd" clip-rule="evenodd" d="M86.6995 85.1233C86.8069 85.1233 86.9099 85.0805 86.9856 85.0043C87.2387 84.7498 87.0585 84.3163 86.6995 84.3163H82.4437C82.3365 84.3163 82.2337 84.359 82.158 84.4349C81.9044 84.6892 82.0845 85.1233 82.4437 85.1233H86.6995ZM85.2592 86.453C85.3665 86.453 85.4695 86.4102 85.5452 86.3341C85.7984 86.0796 85.6181 85.6461 85.2592 85.6461H81.0034C80.8961 85.6461 80.7933 85.6887 80.7176 85.7646C80.464 86.019 80.6442 86.453 81.0034 86.453H85.2592ZM84.2237 87.6556C84.1479 87.7317 84.045 87.7745 83.9376 87.7745H79.6818C79.3226 87.7745 79.1424 87.3405 79.3961 87.0861C79.4718 87.0102 79.5746 86.9675 79.6818 86.9675H83.9376C84.2965 86.9675 84.4768 87.4011 84.2237 87.6556ZM82.7349 89.096C82.8423 89.096 82.9453 89.0532 83.021 88.9771C83.2741 88.7226 83.0939 88.289 82.7349 88.289H78.4791C78.3719 88.289 78.2691 88.3317 78.1934 88.4076C77.9398 88.662 78.1199 89.096 78.4791 89.096H82.7349ZM81.5807 90.2986C81.505 90.3747 81.402 90.4176 81.2947 90.4176H77.0389C76.6797 90.4176 76.4995 89.9835 76.7531 89.7292C76.8288 89.6533 76.9316 89.6106 77.0389 89.6106H81.2947C81.6536 89.6106 81.8339 90.0441 81.5807 90.2986ZM79.9731 91.7391C80.0805 91.7391 80.1834 91.6963 80.2592 91.6201C80.5123 91.3656 80.332 90.9321 79.9731 90.9321H75.7173C75.6101 90.9321 75.5073 90.9748 75.4316 91.0507C75.1779 91.305 75.3581 91.7391 75.7173 91.7391H79.9731Z" fill="#97B2B8"/>
<path fill-rule="evenodd" clip-rule="evenodd" d="M59.1533 106.417C59.8865 105.185 62.6833 101.52 64.4851 100.324C64.4851 100.324 69.7452 100.26 69.7896 100.268C70.3254 100.363 70.1208 100.891 69.7865 100.945L65.1088 101.417C65.1088 101.417 62.7124 108.686 59.4166 108.524L59.1533 106.417Z" fill="#FFC7C0"/>
<path fill-rule="evenodd" clip-rule="evenodd" d="M33.0575 75.2331C33.0575 75.2331 37.4785 81.4854 36.8275 104.478C36.8275 104.478 45.693 106.228 59.1452 104.76C59.1452 104.76 61.018 107.459 59.6674 110.326C59.6674 110.326 40.7468 116.806 27.629 112.603C27.629 112.603 20.5597 88.4492 33.0575 75.2331Z" fill="#7C99BE"/>
<path fill-rule="evenodd" clip-rule="evenodd" d="M77.677 146.974C79.0405 148.693 80.7989 149.689 83.3241 149.28L90.9143 159.089C91.5878 159.778 90.7687 161.658 89.1218 161.159L74.0545 152.193C74.0545 152.193 73.5362 148.986 77.677 146.974Z" fill="white"/>
<path fill-rule="evenodd" clip-rule="evenodd" d="M74.2791 152.108C74.0462 151.979 73.7531 152.064 73.6247 152.297L73.1603 153.141C73.0321 153.374 73.1172 153.667 73.35 153.796L89.5259 162.698C89.7587 162.826 90.0521 162.741 90.1803 162.508L90.6447 161.664C90.7729 161.432 90.688 161.138 90.4552 161.01L74.2791 152.108Z" fill="#405C80"/>
<path fill-rule="evenodd" clip-rule="evenodd" d="M44.7602 66.8269C43.7799 67.018 42.003 66.165 41.4363 64.3281C41.2886 63.849 41.3179 63.3341 41.5901 62.9136C41.8698 62.4849 42.4158 62.0446 43.1997 62.4257C44.8854 63.245 45.8763 65.6822 44.7602 66.8269Z" fill="#FFC7C0"/>
<path fill-rule="evenodd" clip-rule="evenodd" d="M61.0383 74.4133C61.0325 74.3921 61.0293 74.371 61.0293 74.3498C61.0293 73.8186 62.8371 73.3872 65.0633 73.3872C67.2898 73.3872 69.0974 73.8186 69.0974 74.3498C69.0974 74.4056 69.0776 74.46 69.0392 74.5132C69.0392 74.5132 67.6638 84.6412 67.6638 84.6526C67.6638 85.0982 66.48 85.4603 65.0216 85.4603C63.5629 85.4603 62.3788 85.0982 62.3788 84.6526C62.3788 84.6063 61.0383 74.4133 61.0383 74.4133Z" fill="#DDEBEF"/>
<path fill-rule="evenodd" clip-rule="evenodd" d="M69.59 74.4026C69.59 74.9629 67.5617 75.4178 65.0633 75.4178C62.5651 75.4178 60.5371 74.9629 60.5371 74.4026L60.5371 73.3872H69.59V74.4026H69.59Z" fill="#5C5EB7"/>
<path fill-rule="evenodd" clip-rule="evenodd" d="M65.0633 72.3722C67.5617 72.3722 69.59 72.827 69.59 73.3873C69.59 73.9477 67.5617 74.4025 65.0633 74.4025C62.5651 74.4025 60.5371 73.9477 60.5371 73.3873C60.5371 72.827 62.5651 72.3722 65.0633 72.3722Z" fill="#8284D3"/>
<path fill-rule="evenodd" clip-rule="evenodd" d="M65.0629 76.8073C66.5073 76.8073 67.6797 77.9797 67.6797 79.4239C67.6797 80.8683 66.5073 82.0407 65.0629 82.0407C63.619 82.0407 62.4463 80.8683 62.4463 79.4239C62.4463 77.9797 63.619 76.8073 65.0629 76.8073Z" fill="white"/>
<path fill-rule="evenodd" clip-rule="evenodd" d="M66.4006 74.9914C66.1307 74.4813 66.3982 73.8747 67.0077 73.9915C70.4896 74.6592 73.1033 76.2571 73.1033 76.2571C73.1255 76.3639 73.2523 79.711 71.0837 83.4731C71.0837 83.4731 69.8931 84.0115 68.3934 83.5699C68.3934 83.5699 68.6651 81.4565 68.732 78.9586C67.074 78.0708 64.6567 77.2263 64.6567 77.2263C64.1817 76.7474 64.3369 76.0124 64.8938 75.9759C64.4278 75.4296 64.6879 74.6288 65.3899 74.7633C65.7337 74.8294 66.071 74.906 66.4006 74.9914Z" fill="#FFC7C0"/>
</svg>
