<svg xmlns="http://www.w3.org/2000/svg" width="508" height="205" viewBox="0 0 508 205" fill="none">

<path d="M393.88 32V24.88H394.7V31.3H398.27V32H393.88ZM401.149 32.07C400.703 32.07 400.309 31.9667 399.969 31.76C399.636 31.5467 399.376 31.2467 399.189 30.86C399.009 30.4667 398.919 30.0067 398.919 29.48C398.919 28.9533 399.013 28.4933 399.199 28.1C399.386 27.7067 399.646 27.4 399.979 27.18C400.319 26.96 400.709 26.85 401.149 26.85C401.609 26.85 401.999 26.9633 402.319 27.19C402.639 27.4167 402.856 27.74 402.969 28.16L402.849 28.24V26.97H403.649V32H402.849V30.7L402.969 30.76C402.856 31.18 402.639 31.5033 402.319 31.73C401.999 31.9567 401.609 32.07 401.149 32.07ZM401.309 31.4C401.803 31.4 402.183 31.2333 402.449 30.9C402.716 30.56 402.849 30.08 402.849 29.46C402.849 28.84 402.713 28.3633 402.439 28.03C402.173 27.6967 401.796 27.53 401.309 27.53C400.816 27.53 400.429 27.7033 400.149 28.05C399.876 28.39 399.739 28.8667 399.739 29.48C399.739 30.0933 399.876 30.5667 400.149 30.9C400.429 31.2333 400.816 31.4 401.309 31.4ZM406.916 32.07C406.069 32.07 405.399 31.8533 404.906 31.42L405.176 30.82C405.442 31.0267 405.716 31.18 405.996 31.28C406.282 31.3733 406.599 31.42 406.946 31.42C407.326 31.42 407.612 31.3567 407.806 31.23C408.006 31.0967 408.106 30.9067 408.106 30.66C408.106 30.46 408.039 30.3033 407.906 30.19C407.772 30.07 407.552 29.9733 407.246 29.9L406.396 29.7C405.976 29.6067 405.649 29.44 405.416 29.2C405.189 28.96 405.076 28.6733 405.076 28.34C405.076 28.0467 405.156 27.79 405.316 27.57C405.476 27.3433 405.699 27.1667 405.986 27.04C406.272 26.9133 406.612 26.85 407.006 26.85C407.359 26.85 407.692 26.9067 408.006 27.02C408.319 27.1333 408.582 27.2967 408.796 27.51L408.526 28.1C408.286 27.9 408.039 27.7533 407.786 27.66C407.539 27.56 407.279 27.51 407.006 27.51C406.646 27.51 406.366 27.58 406.166 27.72C405.972 27.86 405.876 28.05 405.876 28.29C405.876 28.4967 405.936 28.66 406.056 28.78C406.182 28.9 406.382 28.9933 406.656 29.06L407.506 29.27C407.979 29.37 408.326 29.5367 408.546 29.77C408.772 29.9967 408.886 30.2867 408.886 30.64C408.886 31.0733 408.709 31.42 408.356 31.68C408.002 31.94 407.522 32.07 406.916 32.07ZM409.418 27.61V26.97H412.648V27.61H409.418ZM412.628 31.28V31.97C412.514 32.0033 412.401 32.0267 412.288 32.04C412.181 32.06 412.061 32.07 411.928 32.07C411.461 32.07 411.088 31.9367 410.808 31.67C410.534 31.4033 410.398 31.0033 410.398 30.47V25.68L411.208 25.39V30.36C411.208 30.6267 411.244 30.8333 411.318 30.98C411.398 31.1267 411.504 31.23 411.638 31.29C411.771 31.3433 411.921 31.37 412.088 31.37C412.188 31.37 412.278 31.3633 412.358 31.35C412.438 31.3367 412.528 31.3133 412.628 31.28ZM418.301 31.63V25.36L418.771 25.6L416.841 26.83V26.04L418.661 24.88H419.131V31.63H418.301ZM416.731 32V31.31H420.701V32H416.731ZM422.277 32V31.38L424.767 28.62C425.101 28.2467 425.344 27.91 425.497 27.61C425.651 27.31 425.727 27.01 425.727 26.71C425.727 26.3167 425.614 26.0167 425.387 25.81C425.161 25.5967 424.837 25.49 424.417 25.49C424.071 25.49 423.731 25.56 423.397 25.7C423.064 25.8333 422.731 26.0367 422.397 26.31L422.087 25.68C422.367 25.4133 422.721 25.2 423.147 25.04C423.574 24.88 424.004 24.8 424.437 24.8C424.871 24.8 425.244 24.8767 425.557 25.03C425.877 25.1767 426.124 25.39 426.297 25.67C426.471 25.95 426.557 26.2833 426.557 26.67C426.557 27.0767 426.464 27.47 426.277 27.85C426.097 28.2233 425.794 28.6433 425.367 29.11L422.967 31.71L422.907 31.31H426.857V32H422.277ZM430.931 32V24.88H433.321C434.081 24.88 434.727 25.02 435.261 25.3C435.794 25.5733 436.201 25.9767 436.481 26.51C436.761 27.0367 436.901 27.6767 436.901 28.43C436.901 29.19 436.757 29.8367 436.471 30.37C436.191 30.8967 435.784 31.3 435.251 31.58C434.717 31.86 434.074 32 433.321 32H430.931ZM431.751 31.3H433.271C434.191 31.3 434.881 31.06 435.341 30.58C435.807 30.1 436.041 29.3833 436.041 28.43C436.041 26.53 435.117 25.58 433.271 25.58H431.751V31.3ZM440.222 32.07C439.775 32.07 439.382 31.9667 439.042 31.76C438.708 31.5467 438.448 31.2467 438.262 30.86C438.082 30.4667 437.992 30.0067 437.992 29.48C437.992 28.9533 438.085 28.4933 438.272 28.1C438.458 27.7067 438.718 27.4 439.052 27.18C439.392 26.96 439.782 26.85 440.222 26.85C440.682 26.85 441.072 26.9633 441.392 27.19C441.712 27.4167 441.928 27.74 442.042 28.16L441.922 28.24V26.97H442.722V32H441.922V30.7L442.042 30.76C441.928 31.18 441.712 31.5033 441.392 31.73C441.072 31.9567 440.682 32.07 440.222 32.07ZM440.382 31.4C440.875 31.4 441.255 31.2333 441.522 30.9C441.788 30.56 441.922 30.08 441.922 29.46C441.922 28.84 441.785 28.3633 441.512 28.03C441.245 27.6967 440.868 27.53 440.382 27.53C439.888 27.53 439.502 27.7033 439.222 28.05C438.948 28.39 438.812 28.8667 438.812 29.48C438.812 30.0933 438.948 30.5667 439.222 30.9C439.502 31.2333 439.888 31.4 440.382 31.4ZM444.048 34.27L443.878 33.64C444.184 33.5667 444.441 33.48 444.648 33.38C444.861 33.2867 445.038 33.1633 445.178 33.01C445.324 32.8567 445.451 32.6533 445.558 32.4L445.878 31.66L446.058 31.41L447.898 26.97H448.708L446.358 32.46C446.178 32.8667 445.974 33.19 445.748 33.43C445.521 33.6767 445.264 33.8633 444.978 33.99C444.698 34.1167 444.388 34.21 444.048 34.27ZM445.888 32.26L443.628 26.97H444.478L446.298 31.41L445.888 32.26ZM451.212 32.07C450.366 32.07 449.696 31.8533 449.202 31.42L449.472 30.82C449.739 31.0267 450.012 31.18 450.292 31.28C450.579 31.3733 450.896 31.42 451.242 31.42C451.622 31.42 451.909 31.3567 452.102 31.23C452.302 31.0967 452.402 30.9067 452.402 30.66C452.402 30.46 452.336 30.3033 452.202 30.19C452.069 30.07 451.849 29.9733 451.542 29.9L450.692 29.7C450.272 29.6067 449.946 29.44 449.712 29.2C449.486 28.96 449.372 28.6733 449.372 28.34C449.372 28.0467 449.452 27.79 449.612 27.57C449.772 27.3433 449.996 27.1667 450.282 27.04C450.569 26.9133 450.909 26.85 451.302 26.85C451.656 26.85 451.989 26.9067 452.302 27.02C452.616 27.1333 452.879 27.2967 453.092 27.51L452.822 28.1C452.582 27.9 452.336 27.7533 452.082 27.66C451.836 27.56 451.576 27.51 451.302 27.51C450.942 27.51 450.662 27.58 450.462 27.72C450.269 27.86 450.172 28.05 450.172 28.29C450.172 28.4967 450.232 28.66 450.352 28.78C450.479 28.9 450.679 28.9933 450.952 29.06L451.802 29.27C452.276 29.37 452.622 29.5367 452.842 29.77C453.069 29.9967 453.182 30.2867 453.182 30.64C453.182 31.0733 453.006 31.42 452.652 31.68C452.299 31.94 451.819 32.07 451.212 32.07Z" fill="#696974"/>
<path fill-rule="evenodd" clip-rule="evenodd" d="M481.417 22.1025C481.093 22.1025 480.833 22.365 480.833 22.6858V24.1325C479.547 22.2046 477.345 21 475 21C471.138 21 468 24.1413 468 28C468 28.3238 468.26 28.5833 468.583 28.5833C468.904 28.5833 469.167 28.3238 469.167 28C469.167 24.7829 471.783 22.1667 475 22.1667C477.05 22.1667 478.967 23.2721 480.014 25.0192H478.5C478.176 25.0192 477.917 25.2817 477.917 25.6025C477.917 25.9262 478.176 26.1858 478.5 26.1858H481.417C481.737 26.1858 482 25.9262 482 25.6025V22.6858C482 22.365 481.737 22.1025 481.417 22.1025Z" fill="#696974"/>
<path fill-rule="evenodd" clip-rule="evenodd" d="M481.417 27.4167C481.093 27.4167 480.833 27.6792 480.833 28C480.833 31.2171 478.214 33.8333 475 33.8333C472.947 33.8333 471.03 32.7279 469.986 30.9808H471.5C471.821 30.9808 472.083 30.7183 472.083 30.3975C472.083 30.0767 471.821 29.8142 471.5 29.8142H468.583C468.26 29.8142 468 30.0767 468 30.3975V33.3142C468 33.635 468.26 33.8975 468.583 33.8975C468.904 33.8975 469.167 33.635 469.167 33.3142V31.8675C470.453 33.7954 472.652 35 475 35C478.859 35 482 31.8587 482 28C482 27.6792 481.737 27.4167 481.417 27.4167Z" fill="#696974"/>
<path d="M39.4336 155.968C39.4336 157.026 39.2529 157.812 38.8916 158.326C38.5303 158.84 37.9655 159.098 37.1973 159.098C36.4388 159.098 35.8773 158.847 35.5127 158.346C35.1481 157.841 34.9593 157.089 34.9463 156.09V154.884C34.9463 153.839 35.127 153.062 35.4883 152.555C35.8496 152.047 36.416 151.793 37.1875 151.793C37.9525 151.793 38.5156 152.039 38.877 152.53C39.2383 153.019 39.4238 153.774 39.4336 154.796V155.968ZM38.5303 154.732C38.5303 153.967 38.4229 153.411 38.208 153.062C37.9932 152.711 37.653 152.535 37.1875 152.535C36.7253 152.535 36.3883 152.709 36.1768 153.058C35.9652 153.406 35.8561 153.941 35.8496 154.664V156.109C35.8496 156.878 35.9603 157.446 36.1816 157.813C36.4062 158.178 36.7448 158.36 37.1973 158.36C37.6432 158.36 37.9736 158.188 38.1885 157.843C38.4066 157.498 38.5205 156.954 38.5303 156.212V154.732Z" fill="#92929D"/>
<path d="M38.7891 128.612H39.7754V129.35H38.7891V131H37.8809V129.35H34.6436V128.817L37.8271 123.891H38.7891V128.612ZM35.6689 128.612H37.8809V125.126L37.7734 125.321L35.6689 128.612Z" fill="#92929D"/>
<path d="M39.2871 97.7461C39.2871 98.1009 39.1927 98.4167 39.0039 98.6934C38.8184 98.9701 38.5661 99.1865 38.2471 99.3428C38.6182 99.5023 38.9111 99.735 39.126 100.041C39.3441 100.347 39.4531 100.694 39.4531 101.081C39.4531 101.696 39.2448 102.186 38.8281 102.551C38.4147 102.915 37.8695 103.098 37.1924 103.098C36.5088 103.098 35.9603 102.915 35.5469 102.551C35.1367 102.183 34.9316 101.693 34.9316 101.081C34.9316 100.697 35.0358 100.35 35.2441 100.041C35.4557 99.7318 35.7471 99.4974 36.1182 99.3379C35.8024 99.1816 35.5534 98.9652 35.3711 98.6885C35.1888 98.4118 35.0977 98.0977 35.0977 97.7461C35.0977 97.1471 35.2897 96.6719 35.6738 96.3203C36.0579 95.9688 36.5641 95.793 37.1924 95.793C37.8174 95.793 38.3219 95.9688 38.7061 96.3203C39.0934 96.6719 39.2871 97.1471 39.2871 97.7461ZM38.5498 101.062C38.5498 100.664 38.4229 100.34 38.1689 100.09C37.9183 99.8392 37.5895 99.7139 37.1826 99.7139C36.7757 99.7139 36.4486 99.8376 36.2012 100.085C35.957 100.332 35.835 100.658 35.835 101.062C35.835 101.465 35.9538 101.783 36.1914 102.014C36.4323 102.245 36.766 102.36 37.1924 102.36C37.6156 102.36 37.9476 102.245 38.1885 102.014C38.4294 101.779 38.5498 101.462 38.5498 101.062ZM37.1924 96.5352C36.8376 96.5352 36.5495 96.6458 36.3281 96.8672C36.11 97.0853 36.001 97.3831 36.001 97.7607C36.001 98.1221 36.1084 98.415 36.3232 98.6396C36.5413 98.861 36.8311 98.9717 37.1924 98.9717C37.5537 98.9717 37.8418 98.861 38.0566 98.6396C38.2747 98.415 38.3838 98.1221 38.3838 97.7607C38.3838 97.3994 38.2715 97.1048 38.0469 96.877C37.8223 96.6491 37.5374 96.5352 37.1924 96.5352Z" fill="#92929D"/>
<path d="M32.3291 74H31.4209V67.9795L29.5996 68.6484V67.8281L32.1875 66.8564H32.3291V74ZM39.6338 74H34.9756V73.3506L37.4365 70.6162C37.8011 70.2028 38.0518 69.8675 38.1885 69.6104C38.3285 69.3499 38.3984 69.0814 38.3984 68.8047C38.3984 68.4336 38.2861 68.1292 38.0615 67.8916C37.8369 67.654 37.5374 67.5352 37.1631 67.5352C36.7139 67.5352 36.3639 67.6637 36.1133 67.9209C35.8659 68.1748 35.7422 68.5296 35.7422 68.9854H34.8389C34.8389 68.3311 35.0488 67.8021 35.4688 67.3984C35.8919 66.9948 36.4567 66.793 37.1631 66.793C37.8239 66.793 38.3464 66.9671 38.7305 67.3154C39.1146 67.6605 39.3066 68.1211 39.3066 68.6973C39.3066 69.3971 38.8607 70.2305 37.9688 71.1973L36.0645 73.2627H39.6338V74Z" fill="#92929D"/>
<path d="M54.8037 166.891H55.7461V171.925C55.7461 172.605 55.541 173.137 55.1309 173.521C54.724 173.906 54.1803 174.098 53.5 174.098C52.7936 174.098 52.2435 173.917 51.8496 173.556C51.4557 173.194 51.2588 172.688 51.2588 172.037H52.1963C52.1963 172.444 52.307 172.761 52.5283 172.989C52.7529 173.217 53.0768 173.331 53.5 173.331C53.8874 173.331 54.1999 173.209 54.4375 172.965C54.6784 172.721 54.8005 172.379 54.8037 171.939V166.891ZM60.4629 174C60.4108 173.896 60.3685 173.71 60.3359 173.443C59.916 173.88 59.4147 174.098 58.832 174.098C58.3112 174.098 57.8831 173.951 57.5479 173.658C57.2158 173.362 57.0498 172.988 57.0498 172.535C57.0498 171.985 57.2581 171.559 57.6748 171.256C58.0947 170.95 58.6839 170.797 59.4424 170.797H60.3213V170.382C60.3213 170.066 60.2269 169.815 60.0381 169.63C59.8493 169.441 59.571 169.347 59.2031 169.347C58.8809 169.347 58.6107 169.428 58.3926 169.591C58.1745 169.754 58.0654 169.951 58.0654 170.182H57.1572C57.1572 169.918 57.25 169.664 57.4355 169.42C57.6243 169.173 57.8783 168.977 58.1973 168.834C58.5195 168.691 58.8727 168.619 59.2568 168.619C59.8656 168.619 60.3424 168.772 60.6875 169.078C61.0326 169.381 61.2116 169.799 61.2246 170.333V172.765C61.2246 173.25 61.2865 173.635 61.4102 173.922V174H60.4629ZM58.9639 173.312C59.2471 173.312 59.5156 173.238 59.7695 173.092C60.0234 172.945 60.2074 172.755 60.3213 172.521V171.437H59.6133C58.5065 171.437 57.9531 171.76 57.9531 172.408C57.9531 172.691 58.0475 172.913 58.2363 173.072C58.4251 173.232 58.6676 173.312 58.9639 173.312ZM63.4951 168.717L63.5244 169.381C63.9281 168.873 64.4554 168.619 65.1064 168.619C66.223 168.619 66.7861 169.249 66.7959 170.509V174H65.8926V170.504C65.8893 170.123 65.8014 169.841 65.6289 169.659C65.4596 169.477 65.1943 169.386 64.833 169.386C64.54 169.386 64.2829 169.464 64.0615 169.62C63.8402 169.776 63.6676 169.981 63.5439 170.235V174H62.6406V168.717H63.4951ZM73.5146 174H72.6064V167.979L70.7852 168.648V167.828L73.373 166.856H73.5146V174ZM79.9746 171.612H80.9609V172.35H79.9746V174H79.0664V172.35H75.8291V171.817L79.0127 166.891H79.9746V171.612ZM76.8545 171.612H79.0664V168.126L78.959 168.321L76.8545 171.612Z" fill="#92929D"/>
<path d="M90.8037 166.891H91.7461V171.925C91.7461 172.605 91.541 173.137 91.1309 173.521C90.724 173.906 90.1803 174.098 89.5 174.098C88.7936 174.098 88.2435 173.917 87.8496 173.556C87.4557 173.194 87.2588 172.688 87.2588 172.037H88.1963C88.1963 172.444 88.307 172.761 88.5283 172.989C88.7529 173.217 89.0768 173.331 89.5 173.331C89.8874 173.331 90.1999 173.209 90.4375 172.965C90.6784 172.721 90.8005 172.379 90.8037 171.939V166.891ZM96.4629 174C96.4108 173.896 96.3685 173.71 96.3359 173.443C95.916 173.88 95.4147 174.098 94.832 174.098C94.3112 174.098 93.8831 173.951 93.5479 173.658C93.2158 173.362 93.0498 172.988 93.0498 172.535C93.0498 171.985 93.2581 171.559 93.6748 171.256C94.0947 170.95 94.6839 170.797 95.4424 170.797H96.3213V170.382C96.3213 170.066 96.2269 169.815 96.0381 169.63C95.8493 169.441 95.571 169.347 95.2031 169.347C94.8809 169.347 94.6107 169.428 94.3926 169.591C94.1745 169.754 94.0654 169.951 94.0654 170.182H93.1572C93.1572 169.918 93.25 169.664 93.4355 169.42C93.6243 169.173 93.8783 168.977 94.1973 168.834C94.5195 168.691 94.8727 168.619 95.2568 168.619C95.8656 168.619 96.3424 168.772 96.6875 169.078C97.0326 169.381 97.2116 169.799 97.2246 170.333V172.765C97.2246 173.25 97.2865 173.635 97.4102 173.922V174H96.4629ZM94.9639 173.312C95.2471 173.312 95.5156 173.238 95.7695 173.092C96.0234 172.945 96.2074 172.755 96.3213 172.521V171.437H95.6133C94.5065 171.437 93.9531 171.76 93.9531 172.408C93.9531 172.691 94.0475 172.913 94.2363 173.072C94.4251 173.232 94.6676 173.312 94.9639 173.312ZM99.4951 168.717L99.5244 169.381C99.9281 168.873 100.455 168.619 101.106 168.619C102.223 168.619 102.786 169.249 102.796 170.509V174H101.893V170.504C101.889 170.123 101.801 169.841 101.629 169.659C101.46 169.477 101.194 169.386 100.833 169.386C100.54 169.386 100.283 169.464 100.062 169.62C99.8402 169.776 99.6676 169.981 99.5439 170.235V174H98.6406V168.717H99.4951ZM109.515 174H108.606V167.979L106.785 168.648V167.828L109.373 166.856H109.515V174ZM112.576 170.436L112.938 166.891H116.58V167.726H113.704L113.489 169.664C113.838 169.459 114.233 169.356 114.676 169.356C115.324 169.356 115.838 169.571 116.219 170.001C116.6 170.427 116.79 171.005 116.79 171.734C116.79 172.467 116.591 173.045 116.194 173.468C115.8 173.888 115.249 174.098 114.539 174.098C113.911 174.098 113.398 173.924 113.001 173.575C112.604 173.227 112.378 172.745 112.322 172.13H113.177C113.232 172.537 113.377 172.844 113.611 173.053C113.846 173.258 114.155 173.36 114.539 173.36C114.959 173.36 115.288 173.217 115.525 172.931C115.766 172.644 115.887 172.249 115.887 171.744C115.887 171.269 115.757 170.888 115.496 170.602C115.239 170.312 114.896 170.167 114.466 170.167C114.072 170.167 113.763 170.253 113.538 170.426L113.299 170.621L112.576 170.436Z" fill="#92929D"/>
<path d="M126.804 166.891H127.746V171.925C127.746 172.605 127.541 173.137 127.131 173.521C126.724 173.906 126.18 174.098 125.5 174.098C124.794 174.098 124.243 173.917 123.85 173.556C123.456 173.194 123.259 172.688 123.259 172.037H124.196C124.196 172.444 124.307 172.761 124.528 172.989C124.753 173.217 125.077 173.331 125.5 173.331C125.887 173.331 126.2 173.209 126.438 172.965C126.678 172.721 126.8 172.379 126.804 171.939V166.891ZM132.463 174C132.411 173.896 132.368 173.71 132.336 173.443C131.916 173.88 131.415 174.098 130.832 174.098C130.311 174.098 129.883 173.951 129.548 173.658C129.216 173.362 129.05 172.988 129.05 172.535C129.05 171.985 129.258 171.559 129.675 171.256C130.095 170.95 130.684 170.797 131.442 170.797H132.321V170.382C132.321 170.066 132.227 169.815 132.038 169.63C131.849 169.441 131.571 169.347 131.203 169.347C130.881 169.347 130.611 169.428 130.393 169.591C130.174 169.754 130.065 169.951 130.065 170.182H129.157C129.157 169.918 129.25 169.664 129.436 169.42C129.624 169.173 129.878 168.977 130.197 168.834C130.52 168.691 130.873 168.619 131.257 168.619C131.866 168.619 132.342 168.772 132.688 169.078C133.033 169.381 133.212 169.799 133.225 170.333V172.765C133.225 173.25 133.286 173.635 133.41 173.922V174H132.463ZM130.964 173.312C131.247 173.312 131.516 173.238 131.77 173.092C132.023 172.945 132.207 172.755 132.321 172.521V171.437H131.613C130.507 171.437 129.953 171.76 129.953 172.408C129.953 172.691 130.048 172.913 130.236 173.072C130.425 173.232 130.668 173.312 130.964 173.312ZM135.495 168.717L135.524 169.381C135.928 168.873 136.455 168.619 137.106 168.619C138.223 168.619 138.786 169.249 138.796 170.509V174H137.893V170.504C137.889 170.123 137.801 169.841 137.629 169.659C137.46 169.477 137.194 169.386 136.833 169.386C136.54 169.386 136.283 169.464 136.062 169.62C135.84 169.776 135.668 169.981 135.544 170.235V174H134.641V168.717H135.495ZM145.515 174H144.606V167.979L142.785 168.648V167.828L145.373 166.856H145.515V174ZM151.706 166.886V167.652H151.54C150.837 167.665 150.277 167.874 149.86 168.277C149.444 168.681 149.203 169.249 149.138 169.981C149.512 169.552 150.023 169.337 150.671 169.337C151.289 169.337 151.783 169.555 152.15 169.991C152.521 170.427 152.707 170.991 152.707 171.681C152.707 172.413 152.507 172.999 152.106 173.438C151.709 173.878 151.175 174.098 150.505 174.098C149.825 174.098 149.273 173.837 148.85 173.316C148.426 172.792 148.215 172.118 148.215 171.295V170.948C148.215 169.64 148.493 168.64 149.05 167.95C149.61 167.257 150.441 166.902 151.545 166.886H151.706ZM150.52 170.089C150.21 170.089 149.925 170.182 149.665 170.367C149.405 170.553 149.224 170.785 149.123 171.065V171.397C149.123 171.983 149.255 172.455 149.519 172.813C149.782 173.172 150.111 173.351 150.505 173.351C150.912 173.351 151.231 173.201 151.462 172.901C151.696 172.602 151.813 172.21 151.813 171.725C151.813 171.236 151.695 170.842 151.457 170.543C151.223 170.24 150.91 170.089 150.52 170.089Z" fill="#92929D"/>
<path d="M162.804 166.891H163.746V171.925C163.746 172.605 163.541 173.137 163.131 173.521C162.724 173.906 162.18 174.098 161.5 174.098C160.794 174.098 160.243 173.917 159.85 173.556C159.456 173.194 159.259 172.688 159.259 172.037H160.196C160.196 172.444 160.307 172.761 160.528 172.989C160.753 173.217 161.077 173.331 161.5 173.331C161.887 173.331 162.2 173.209 162.438 172.965C162.678 172.721 162.8 172.379 162.804 171.939V166.891ZM168.463 174C168.411 173.896 168.368 173.71 168.336 173.443C167.916 173.88 167.415 174.098 166.832 174.098C166.311 174.098 165.883 173.951 165.548 173.658C165.216 173.362 165.05 172.988 165.05 172.535C165.05 171.985 165.258 171.559 165.675 171.256C166.095 170.95 166.684 170.797 167.442 170.797H168.321V170.382C168.321 170.066 168.227 169.815 168.038 169.63C167.849 169.441 167.571 169.347 167.203 169.347C166.881 169.347 166.611 169.428 166.393 169.591C166.174 169.754 166.065 169.951 166.065 170.182H165.157C165.157 169.918 165.25 169.664 165.436 169.42C165.624 169.173 165.878 168.977 166.197 168.834C166.52 168.691 166.873 168.619 167.257 168.619C167.866 168.619 168.342 168.772 168.688 169.078C169.033 169.381 169.212 169.799 169.225 170.333V172.765C169.225 173.25 169.286 173.635 169.41 173.922V174H168.463ZM166.964 173.312C167.247 173.312 167.516 173.238 167.77 173.092C168.023 172.945 168.207 172.755 168.321 172.521V171.437H167.613C166.507 171.437 165.953 171.76 165.953 172.408C165.953 172.691 166.048 172.913 166.236 173.072C166.425 173.232 166.668 173.312 166.964 173.312ZM171.495 168.717L171.524 169.381C171.928 168.873 172.455 168.619 173.106 168.619C174.223 168.619 174.786 169.249 174.796 170.509V174H173.893V170.504C173.889 170.123 173.801 169.841 173.629 169.659C173.46 169.477 173.194 169.386 172.833 169.386C172.54 169.386 172.283 169.464 172.062 169.62C171.84 169.776 171.668 169.981 171.544 170.235V174H170.641V168.717H171.495ZM181.515 174H180.606V167.979L178.785 168.648V167.828L181.373 166.856H181.515V174ZM188.751 167.398L185.807 174H184.859L187.794 167.633H183.946V166.891H188.751V167.398Z" fill="#92929D"/>
<path d="M198.804 166.891H199.746V171.925C199.746 172.605 199.541 173.137 199.131 173.521C198.724 173.906 198.18 174.098 197.5 174.098C196.794 174.098 196.243 173.917 195.85 173.556C195.456 173.194 195.259 172.688 195.259 172.037H196.196C196.196 172.444 196.307 172.761 196.528 172.989C196.753 173.217 197.077 173.331 197.5 173.331C197.887 173.331 198.2 173.209 198.438 172.965C198.678 172.721 198.8 172.379 198.804 171.939V166.891ZM204.463 174C204.411 173.896 204.368 173.71 204.336 173.443C203.916 173.88 203.415 174.098 202.832 174.098C202.311 174.098 201.883 173.951 201.548 173.658C201.216 173.362 201.05 172.988 201.05 172.535C201.05 171.985 201.258 171.559 201.675 171.256C202.095 170.95 202.684 170.797 203.442 170.797H204.321V170.382C204.321 170.066 204.227 169.815 204.038 169.63C203.849 169.441 203.571 169.347 203.203 169.347C202.881 169.347 202.611 169.428 202.393 169.591C202.174 169.754 202.065 169.951 202.065 170.182H201.157C201.157 169.918 201.25 169.664 201.436 169.42C201.624 169.173 201.878 168.977 202.197 168.834C202.52 168.691 202.873 168.619 203.257 168.619C203.866 168.619 204.342 168.772 204.688 169.078C205.033 169.381 205.212 169.799 205.225 170.333V172.765C205.225 173.25 205.286 173.635 205.41 173.922V174H204.463ZM202.964 173.312C203.247 173.312 203.516 173.238 203.77 173.092C204.023 172.945 204.207 172.755 204.321 172.521V171.437H203.613C202.507 171.437 201.953 171.76 201.953 172.408C201.953 172.691 202.048 172.913 202.236 173.072C202.425 173.232 202.668 173.312 202.964 173.312ZM207.495 168.717L207.524 169.381C207.928 168.873 208.455 168.619 209.106 168.619C210.223 168.619 210.786 169.249 210.796 170.509V174H209.893V170.504C209.889 170.123 209.801 169.841 209.629 169.659C209.46 169.477 209.194 169.386 208.833 169.386C208.54 169.386 208.283 169.464 208.062 169.62C207.84 169.776 207.668 169.981 207.544 170.235V174H206.641V168.717H207.495ZM217.515 174H216.606V167.979L214.785 168.648V167.828L217.373 166.856H217.515V174ZM224.473 168.746C224.473 169.101 224.378 169.417 224.189 169.693C224.004 169.97 223.752 170.187 223.433 170.343C223.804 170.502 224.097 170.735 224.312 171.041C224.53 171.347 224.639 171.694 224.639 172.081C224.639 172.696 224.43 173.186 224.014 173.551C223.6 173.915 223.055 174.098 222.378 174.098C221.694 174.098 221.146 173.915 220.732 173.551C220.322 173.183 220.117 172.693 220.117 172.081C220.117 171.697 220.221 171.35 220.43 171.041C220.641 170.732 220.933 170.497 221.304 170.338C220.988 170.182 220.739 169.965 220.557 169.688C220.374 169.412 220.283 169.098 220.283 168.746C220.283 168.147 220.475 167.672 220.859 167.32C221.243 166.969 221.75 166.793 222.378 166.793C223.003 166.793 223.507 166.969 223.892 167.32C224.279 167.672 224.473 168.147 224.473 168.746ZM223.735 172.062C223.735 171.664 223.608 171.34 223.354 171.09C223.104 170.839 222.775 170.714 222.368 170.714C221.961 170.714 221.634 170.838 221.387 171.085C221.143 171.332 221.021 171.658 221.021 172.062C221.021 172.465 221.139 172.783 221.377 173.014C221.618 173.245 221.951 173.36 222.378 173.36C222.801 173.36 223.133 173.245 223.374 173.014C223.615 172.779 223.735 172.462 223.735 172.062ZM222.378 167.535C222.023 167.535 221.735 167.646 221.514 167.867C221.296 168.085 221.187 168.383 221.187 168.761C221.187 169.122 221.294 169.415 221.509 169.64C221.727 169.861 222.017 169.972 222.378 169.972C222.739 169.972 223.027 169.861 223.242 169.64C223.46 169.415 223.569 169.122 223.569 168.761C223.569 168.399 223.457 168.105 223.232 167.877C223.008 167.649 222.723 167.535 222.378 167.535Z" fill="#92929D"/>
<path d="M234.804 166.891H235.746V171.925C235.746 172.605 235.541 173.137 235.131 173.521C234.724 173.906 234.18 174.098 233.5 174.098C232.794 174.098 232.243 173.917 231.85 173.556C231.456 173.194 231.259 172.688 231.259 172.037H232.196C232.196 172.444 232.307 172.761 232.528 172.989C232.753 173.217 233.077 173.331 233.5 173.331C233.887 173.331 234.2 173.209 234.438 172.965C234.678 172.721 234.8 172.379 234.804 171.939V166.891ZM240.463 174C240.411 173.896 240.368 173.71 240.336 173.443C239.916 173.88 239.415 174.098 238.832 174.098C238.311 174.098 237.883 173.951 237.548 173.658C237.216 173.362 237.05 172.988 237.05 172.535C237.05 171.985 237.258 171.559 237.675 171.256C238.095 170.95 238.684 170.797 239.442 170.797H240.321V170.382C240.321 170.066 240.227 169.815 240.038 169.63C239.849 169.441 239.571 169.347 239.203 169.347C238.881 169.347 238.611 169.428 238.393 169.591C238.174 169.754 238.065 169.951 238.065 170.182H237.157C237.157 169.918 237.25 169.664 237.436 169.42C237.624 169.173 237.878 168.977 238.197 168.834C238.52 168.691 238.873 168.619 239.257 168.619C239.866 168.619 240.342 168.772 240.688 169.078C241.033 169.381 241.212 169.799 241.225 170.333V172.765C241.225 173.25 241.286 173.635 241.41 173.922V174H240.463ZM238.964 173.312C239.247 173.312 239.516 173.238 239.77 173.092C240.023 172.945 240.207 172.755 240.321 172.521V171.437H239.613C238.507 171.437 237.953 171.76 237.953 172.408C237.953 172.691 238.048 172.913 238.236 173.072C238.425 173.232 238.668 173.312 238.964 173.312ZM243.495 168.717L243.524 169.381C243.928 168.873 244.455 168.619 245.106 168.619C246.223 168.619 246.786 169.249 246.796 170.509V174H245.893V170.504C245.889 170.123 245.801 169.841 245.629 169.659C245.46 169.477 245.194 169.386 244.833 169.386C244.54 169.386 244.283 169.464 244.062 169.62C243.84 169.776 243.668 169.981 243.544 170.235V174H242.641V168.717H243.495ZM253.515 174H252.606V167.979L250.785 168.648V167.828L253.373 166.856H253.515V174ZM259.623 170.875C259.434 171.1 259.208 171.28 258.944 171.417C258.684 171.554 258.397 171.622 258.085 171.622C257.675 171.622 257.317 171.521 257.011 171.319C256.708 171.118 256.474 170.834 256.308 170.47C256.142 170.102 256.059 169.697 256.059 169.254C256.059 168.779 256.148 168.351 256.327 167.97C256.509 167.589 256.767 167.298 257.099 167.096C257.431 166.894 257.818 166.793 258.261 166.793C258.964 166.793 259.517 167.057 259.921 167.584C260.328 168.108 260.531 168.824 260.531 169.732V169.996C260.531 171.38 260.258 172.39 259.711 173.028C259.164 173.663 258.339 173.989 257.235 174.005H257.06V173.243H257.25C257.995 173.23 258.568 173.036 258.969 172.662C259.369 172.285 259.587 171.689 259.623 170.875ZM258.231 170.875C258.534 170.875 258.812 170.782 259.066 170.597C259.324 170.411 259.511 170.182 259.628 169.908V169.547C259.628 168.954 259.499 168.473 259.242 168.102C258.985 167.73 258.66 167.545 258.266 167.545C257.868 167.545 257.549 167.698 257.309 168.004C257.068 168.307 256.947 168.707 256.947 169.205C256.947 169.69 257.063 170.09 257.294 170.406C257.528 170.719 257.841 170.875 258.231 170.875Z" fill="#92929D"/>
<path d="M270.804 166.891H271.746V171.925C271.746 172.605 271.541 173.137 271.131 173.521C270.724 173.906 270.18 174.098 269.5 174.098C268.794 174.098 268.243 173.917 267.85 173.556C267.456 173.194 267.259 172.688 267.259 172.037H268.196C268.196 172.444 268.307 172.761 268.528 172.989C268.753 173.217 269.077 173.331 269.5 173.331C269.887 173.331 270.2 173.209 270.438 172.965C270.678 172.721 270.8 172.379 270.804 171.939V166.891ZM276.463 174C276.411 173.896 276.368 173.71 276.336 173.443C275.916 173.88 275.415 174.098 274.832 174.098C274.311 174.098 273.883 173.951 273.548 173.658C273.216 173.362 273.05 172.988 273.05 172.535C273.05 171.985 273.258 171.559 273.675 171.256C274.095 170.95 274.684 170.797 275.442 170.797H276.321V170.382C276.321 170.066 276.227 169.815 276.038 169.63C275.849 169.441 275.571 169.347 275.203 169.347C274.881 169.347 274.611 169.428 274.393 169.591C274.174 169.754 274.065 169.951 274.065 170.182H273.157C273.157 169.918 273.25 169.664 273.436 169.42C273.624 169.173 273.878 168.977 274.197 168.834C274.52 168.691 274.873 168.619 275.257 168.619C275.866 168.619 276.342 168.772 276.688 169.078C277.033 169.381 277.212 169.799 277.225 170.333V172.765C277.225 173.25 277.286 173.635 277.41 173.922V174H276.463ZM274.964 173.312C275.247 173.312 275.516 173.238 275.77 173.092C276.023 172.945 276.207 172.755 276.321 172.521V171.437H275.613C274.507 171.437 273.953 171.76 273.953 172.408C273.953 172.691 274.048 172.913 274.236 173.072C274.425 173.232 274.668 173.312 274.964 173.312ZM279.495 168.717L279.524 169.381C279.928 168.873 280.455 168.619 281.106 168.619C282.223 168.619 282.786 169.249 282.796 170.509V174H281.893V170.504C281.889 170.123 281.801 169.841 281.629 169.659C281.46 169.477 281.194 169.386 280.833 169.386C280.54 169.386 280.283 169.464 280.062 169.62C279.84 169.776 279.668 169.981 279.544 170.235V174H278.641V168.717H279.495ZM291.204 174H286.546V173.351L289.007 170.616C289.371 170.203 289.622 169.868 289.759 169.61C289.899 169.35 289.969 169.081 289.969 168.805C289.969 168.434 289.856 168.129 289.632 167.892C289.407 167.654 289.108 167.535 288.733 167.535C288.284 167.535 287.934 167.664 287.684 167.921C287.436 168.175 287.312 168.53 287.312 168.985H286.409C286.409 168.331 286.619 167.802 287.039 167.398C287.462 166.995 288.027 166.793 288.733 166.793C289.394 166.793 289.917 166.967 290.301 167.315C290.685 167.66 290.877 168.121 290.877 168.697C290.877 169.397 290.431 170.23 289.539 171.197L287.635 173.263H291.204V174ZM296.619 170.968C296.619 172.026 296.438 172.812 296.077 173.326C295.716 173.84 295.151 174.098 294.383 174.098C293.624 174.098 293.063 173.847 292.698 173.346C292.334 172.841 292.145 172.089 292.132 171.09V169.884C292.132 168.839 292.312 168.062 292.674 167.555C293.035 167.047 293.602 166.793 294.373 166.793C295.138 166.793 295.701 167.039 296.062 167.53C296.424 168.019 296.609 168.774 296.619 169.796V170.968ZM295.716 169.732C295.716 168.967 295.608 168.411 295.394 168.062C295.179 167.711 294.839 167.535 294.373 167.535C293.911 167.535 293.574 167.709 293.362 168.058C293.151 168.406 293.042 168.941 293.035 169.664V171.109C293.035 171.878 293.146 172.446 293.367 172.813C293.592 173.178 293.93 173.36 294.383 173.36C294.829 173.36 295.159 173.188 295.374 172.843C295.592 172.498 295.706 171.954 295.716 171.212V169.732Z" fill="#92929D"/>
<path d="M306.804 166.891H307.746V171.925C307.746 172.605 307.541 173.137 307.131 173.521C306.724 173.906 306.18 174.098 305.5 174.098C304.794 174.098 304.243 173.917 303.85 173.556C303.456 173.194 303.259 172.688 303.259 172.037H304.196C304.196 172.444 304.307 172.761 304.528 172.989C304.753 173.217 305.077 173.331 305.5 173.331C305.887 173.331 306.2 173.209 306.438 172.965C306.678 172.721 306.8 172.379 306.804 171.939V166.891ZM312.463 174C312.411 173.896 312.368 173.71 312.336 173.443C311.916 173.88 311.415 174.098 310.832 174.098C310.311 174.098 309.883 173.951 309.548 173.658C309.216 173.362 309.05 172.988 309.05 172.535C309.05 171.985 309.258 171.559 309.675 171.256C310.095 170.95 310.684 170.797 311.442 170.797H312.321V170.382C312.321 170.066 312.227 169.815 312.038 169.63C311.849 169.441 311.571 169.347 311.203 169.347C310.881 169.347 310.611 169.428 310.393 169.591C310.174 169.754 310.065 169.951 310.065 170.182H309.157C309.157 169.918 309.25 169.664 309.436 169.42C309.624 169.173 309.878 168.977 310.197 168.834C310.52 168.691 310.873 168.619 311.257 168.619C311.866 168.619 312.342 168.772 312.688 169.078C313.033 169.381 313.212 169.799 313.225 170.333V172.765C313.225 173.25 313.286 173.635 313.41 173.922V174H312.463ZM310.964 173.312C311.247 173.312 311.516 173.238 311.77 173.092C312.023 172.945 312.207 172.755 312.321 172.521V171.437H311.613C310.507 171.437 309.953 171.76 309.953 172.408C309.953 172.691 310.048 172.913 310.236 173.072C310.425 173.232 310.668 173.312 310.964 173.312ZM315.495 168.717L315.524 169.381C315.928 168.873 316.455 168.619 317.106 168.619C318.223 168.619 318.786 169.249 318.796 170.509V174H317.893V170.504C317.889 170.123 317.801 169.841 317.629 169.659C317.46 169.477 317.194 169.386 316.833 169.386C316.54 169.386 316.283 169.464 316.062 169.62C315.84 169.776 315.668 169.981 315.544 170.235V174H314.641V168.717H315.495ZM327.204 174H322.546V173.351L325.007 170.616C325.371 170.203 325.622 169.868 325.759 169.61C325.899 169.35 325.969 169.081 325.969 168.805C325.969 168.434 325.856 168.129 325.632 167.892C325.407 167.654 325.108 167.535 324.733 167.535C324.284 167.535 323.934 167.664 323.684 167.921C323.436 168.175 323.312 168.53 323.312 168.985H322.409C322.409 168.331 322.619 167.802 323.039 167.398C323.462 166.995 324.027 166.793 324.733 166.793C325.394 166.793 325.917 166.967 326.301 167.315C326.685 167.66 326.877 168.121 326.877 168.697C326.877 169.397 326.431 170.23 325.539 171.197L323.635 173.263H327.204V174ZM331.13 174H330.222V167.979L328.4 168.648V167.828L330.988 166.856H331.13V174Z" fill="#92929D"/>
<path d="M342.804 166.891H343.746V171.925C343.746 172.605 343.541 173.137 343.131 173.521C342.724 173.906 342.18 174.098 341.5 174.098C340.794 174.098 340.243 173.917 339.85 173.556C339.456 173.194 339.259 172.688 339.259 172.037H340.196C340.196 172.444 340.307 172.761 340.528 172.989C340.753 173.217 341.077 173.331 341.5 173.331C341.887 173.331 342.2 173.209 342.438 172.965C342.678 172.721 342.8 172.379 342.804 171.939V166.891ZM348.463 174C348.411 173.896 348.368 173.71 348.336 173.443C347.916 173.88 347.415 174.098 346.832 174.098C346.311 174.098 345.883 173.951 345.548 173.658C345.216 173.362 345.05 172.988 345.05 172.535C345.05 171.985 345.258 171.559 345.675 171.256C346.095 170.95 346.684 170.797 347.442 170.797H348.321V170.382C348.321 170.066 348.227 169.815 348.038 169.63C347.849 169.441 347.571 169.347 347.203 169.347C346.881 169.347 346.611 169.428 346.393 169.591C346.174 169.754 346.065 169.951 346.065 170.182H345.157C345.157 169.918 345.25 169.664 345.436 169.42C345.624 169.173 345.878 168.977 346.197 168.834C346.52 168.691 346.873 168.619 347.257 168.619C347.866 168.619 348.342 168.772 348.688 169.078C349.033 169.381 349.212 169.799 349.225 170.333V172.765C349.225 173.25 349.286 173.635 349.41 173.922V174H348.463ZM346.964 173.312C347.247 173.312 347.516 173.238 347.77 173.092C348.023 172.945 348.207 172.755 348.321 172.521V171.437H347.613C346.507 171.437 345.953 171.76 345.953 172.408C345.953 172.691 346.048 172.913 346.236 173.072C346.425 173.232 346.668 173.312 346.964 173.312ZM351.495 168.717L351.524 169.381C351.928 168.873 352.455 168.619 353.106 168.619C354.223 168.619 354.786 169.249 354.796 170.509V174H353.893V170.504C353.889 170.123 353.801 169.841 353.629 169.659C353.46 169.477 353.194 169.386 352.833 169.386C352.54 169.386 352.283 169.464 352.062 169.62C351.84 169.776 351.668 169.981 351.544 170.235V174H350.641V168.717H351.495ZM363.204 174H358.546V173.351L361.007 170.616C361.371 170.203 361.622 169.868 361.759 169.61C361.899 169.35 361.969 169.081 361.969 168.805C361.969 168.434 361.856 168.129 361.632 167.892C361.407 167.654 361.108 167.535 360.733 167.535C360.284 167.535 359.934 167.664 359.684 167.921C359.436 168.175 359.312 168.53 359.312 168.985H358.409C358.409 168.331 358.619 167.802 359.039 167.398C359.462 166.995 360.027 166.793 360.733 166.793C361.394 166.793 361.917 166.967 362.301 167.315C362.685 167.66 362.877 168.121 362.877 168.697C362.877 169.397 362.431 170.23 361.539 171.197L359.635 173.263H363.204V174ZM368.819 174H364.161V173.351L366.622 170.616C366.987 170.203 367.237 169.868 367.374 169.61C367.514 169.35 367.584 169.081 367.584 168.805C367.584 168.434 367.472 168.129 367.247 167.892C367.022 167.654 366.723 167.535 366.349 167.535C365.899 167.535 365.549 167.664 365.299 167.921C365.051 168.175 364.928 168.53 364.928 168.985H364.024C364.024 168.331 364.234 167.802 364.654 167.398C365.077 166.995 365.642 166.793 366.349 166.793C367.009 166.793 367.532 166.967 367.916 167.315C368.3 167.66 368.492 168.121 368.492 168.697C368.492 169.397 368.046 170.23 367.154 171.197L365.25 173.263H368.819V174Z" fill="#92929D"/>
<path d="M378.804 166.891H379.746V171.925C379.746 172.605 379.541 173.137 379.131 173.521C378.724 173.906 378.18 174.098 377.5 174.098C376.794 174.098 376.243 173.917 375.85 173.556C375.456 173.194 375.259 172.688 375.259 172.037H376.196C376.196 172.444 376.307 172.761 376.528 172.989C376.753 173.217 377.077 173.331 377.5 173.331C377.887 173.331 378.2 173.209 378.438 172.965C378.678 172.721 378.8 172.379 378.804 171.939V166.891ZM384.463 174C384.411 173.896 384.368 173.71 384.336 173.443C383.916 173.88 383.415 174.098 382.832 174.098C382.311 174.098 381.883 173.951 381.548 173.658C381.216 173.362 381.05 172.988 381.05 172.535C381.05 171.985 381.258 171.559 381.675 171.256C382.095 170.95 382.684 170.797 383.442 170.797H384.321V170.382C384.321 170.066 384.227 169.815 384.038 169.63C383.849 169.441 383.571 169.347 383.203 169.347C382.881 169.347 382.611 169.428 382.393 169.591C382.174 169.754 382.065 169.951 382.065 170.182H381.157C381.157 169.918 381.25 169.664 381.436 169.42C381.624 169.173 381.878 168.977 382.197 168.834C382.52 168.691 382.873 168.619 383.257 168.619C383.866 168.619 384.342 168.772 384.688 169.078C385.033 169.381 385.212 169.799 385.225 170.333V172.765C385.225 173.25 385.286 173.635 385.41 173.922V174H384.463ZM382.964 173.312C383.247 173.312 383.516 173.238 383.77 173.092C384.023 172.945 384.207 172.755 384.321 172.521V171.437H383.613C382.507 171.437 381.953 171.76 381.953 172.408C381.953 172.691 382.048 172.913 382.236 173.072C382.425 173.232 382.668 173.312 382.964 173.312ZM387.495 168.717L387.524 169.381C387.928 168.873 388.455 168.619 389.106 168.619C390.223 168.619 390.786 169.249 390.796 170.509V174H389.893V170.504C389.889 170.123 389.801 169.841 389.629 169.659C389.46 169.477 389.194 169.386 388.833 169.386C388.54 169.386 388.283 169.464 388.062 169.62C387.84 169.776 387.668 169.981 387.544 170.235V174H386.641V168.717H387.495ZM399.204 174H394.546V173.351L397.007 170.616C397.371 170.203 397.622 169.868 397.759 169.61C397.899 169.35 397.969 169.081 397.969 168.805C397.969 168.434 397.856 168.129 397.632 167.892C397.407 167.654 397.108 167.535 396.733 167.535C396.284 167.535 395.934 167.664 395.684 167.921C395.436 168.175 395.312 168.53 395.312 168.985H394.409C394.409 168.331 394.619 167.802 395.039 167.398C395.462 166.995 396.027 166.793 396.733 166.793C397.394 166.793 397.917 166.967 398.301 167.315C398.685 167.66 398.877 168.121 398.877 168.697C398.877 169.397 398.431 170.23 397.539 171.197L395.635 173.263H399.204V174ZM401.475 170.006H402.153C402.58 169.999 402.915 169.887 403.159 169.669C403.403 169.451 403.525 169.156 403.525 168.785C403.525 167.952 403.11 167.535 402.28 167.535C401.89 167.535 401.577 167.647 401.343 167.872C401.112 168.093 400.996 168.388 400.996 168.756H400.093C400.093 168.193 400.298 167.726 400.708 167.354C401.121 166.98 401.646 166.793 402.28 166.793C402.951 166.793 403.477 166.97 403.857 167.325C404.238 167.68 404.429 168.173 404.429 168.805C404.429 169.114 404.328 169.413 404.126 169.703C403.927 169.993 403.656 170.209 403.311 170.353C403.701 170.476 404.002 170.681 404.214 170.968C404.429 171.254 404.536 171.604 404.536 172.018C404.536 172.656 404.328 173.162 403.911 173.536C403.494 173.91 402.952 174.098 402.285 174.098C401.618 174.098 401.074 173.917 400.654 173.556C400.238 173.194 400.029 172.717 400.029 172.125H400.938C400.938 172.499 401.06 172.799 401.304 173.023C401.548 173.248 401.875 173.36 402.285 173.36C402.721 173.36 403.055 173.246 403.286 173.019C403.517 172.791 403.633 172.464 403.633 172.037C403.633 171.624 403.506 171.306 403.252 171.085C402.998 170.864 402.632 170.75 402.153 170.743H401.475V170.006Z" fill="#92929D"/>
<path d="M414.804 166.891H415.746V171.925C415.746 172.605 415.541 173.137 415.131 173.521C414.724 173.906 414.18 174.098 413.5 174.098C412.794 174.098 412.243 173.917 411.85 173.556C411.456 173.194 411.259 172.688 411.259 172.037H412.196C412.196 172.444 412.307 172.761 412.528 172.989C412.753 173.217 413.077 173.331 413.5 173.331C413.887 173.331 414.2 173.209 414.438 172.965C414.678 172.721 414.8 172.379 414.804 171.939V166.891ZM420.463 174C420.411 173.896 420.368 173.71 420.336 173.443C419.916 173.88 419.415 174.098 418.832 174.098C418.311 174.098 417.883 173.951 417.548 173.658C417.216 173.362 417.05 172.988 417.05 172.535C417.05 171.985 417.258 171.559 417.675 171.256C418.095 170.95 418.684 170.797 419.442 170.797H420.321V170.382C420.321 170.066 420.227 169.815 420.038 169.63C419.849 169.441 419.571 169.347 419.203 169.347C418.881 169.347 418.611 169.428 418.393 169.591C418.174 169.754 418.065 169.951 418.065 170.182H417.157C417.157 169.918 417.25 169.664 417.436 169.42C417.624 169.173 417.878 168.977 418.197 168.834C418.52 168.691 418.873 168.619 419.257 168.619C419.866 168.619 420.342 168.772 420.688 169.078C421.033 169.381 421.212 169.799 421.225 170.333V172.765C421.225 173.25 421.286 173.635 421.41 173.922V174H420.463ZM418.964 173.312C419.247 173.312 419.516 173.238 419.77 173.092C420.023 172.945 420.207 172.755 420.321 172.521V171.437H419.613C418.507 171.437 417.953 171.76 417.953 172.408C417.953 172.691 418.048 172.913 418.236 173.072C418.425 173.232 418.668 173.312 418.964 173.312ZM423.495 168.717L423.524 169.381C423.928 168.873 424.455 168.619 425.106 168.619C426.223 168.619 426.786 169.249 426.796 170.509V174H425.893V170.504C425.889 170.123 425.801 169.841 425.629 169.659C425.46 169.477 425.194 169.386 424.833 169.386C424.54 169.386 424.283 169.464 424.062 169.62C423.84 169.776 423.668 169.981 423.544 170.235V174H422.641V168.717H423.495ZM435.204 174H430.546V173.351L433.007 170.616C433.371 170.203 433.622 169.868 433.759 169.61C433.899 169.35 433.969 169.081 433.969 168.805C433.969 168.434 433.856 168.129 433.632 167.892C433.407 167.654 433.108 167.535 432.733 167.535C432.284 167.535 431.934 167.664 431.684 167.921C431.436 168.175 431.312 168.53 431.312 168.985H430.409C430.409 168.331 430.619 167.802 431.039 167.398C431.462 166.995 432.027 166.793 432.733 166.793C433.394 166.793 433.917 166.967 434.301 167.315C434.685 167.66 434.877 168.121 434.877 168.697C434.877 169.397 434.431 170.23 433.539 171.197L431.635 173.263H435.204V174ZM439.975 171.612H440.961V172.35H439.975V174H439.066V172.35H435.829V171.817L439.013 166.891H439.975V171.612ZM436.854 171.612H439.066V168.126L438.959 168.321L436.854 171.612Z" fill="#92929D"/>
<path d="M450.804 166.891H451.746V171.925C451.746 172.605 451.541 173.137 451.131 173.521C450.724 173.906 450.18 174.098 449.5 174.098C448.794 174.098 448.243 173.917 447.85 173.556C447.456 173.194 447.259 172.688 447.259 172.037H448.196C448.196 172.444 448.307 172.761 448.528 172.989C448.753 173.217 449.077 173.331 449.5 173.331C449.887 173.331 450.2 173.209 450.438 172.965C450.678 172.721 450.8 172.379 450.804 171.939V166.891ZM456.463 174C456.411 173.896 456.368 173.71 456.336 173.443C455.916 173.88 455.415 174.098 454.832 174.098C454.311 174.098 453.883 173.951 453.548 173.658C453.216 173.362 453.05 172.988 453.05 172.535C453.05 171.985 453.258 171.559 453.675 171.256C454.095 170.95 454.684 170.797 455.442 170.797H456.321V170.382C456.321 170.066 456.227 169.815 456.038 169.63C455.849 169.441 455.571 169.347 455.203 169.347C454.881 169.347 454.611 169.428 454.393 169.591C454.174 169.754 454.065 169.951 454.065 170.182H453.157C453.157 169.918 453.25 169.664 453.436 169.42C453.624 169.173 453.878 168.977 454.197 168.834C454.52 168.691 454.873 168.619 455.257 168.619C455.866 168.619 456.342 168.772 456.688 169.078C457.033 169.381 457.212 169.799 457.225 170.333V172.765C457.225 173.25 457.286 173.635 457.41 173.922V174H456.463ZM454.964 173.312C455.247 173.312 455.516 173.238 455.77 173.092C456.023 172.945 456.207 172.755 456.321 172.521V171.437H455.613C454.507 171.437 453.953 171.76 453.953 172.408C453.953 172.691 454.048 172.913 454.236 173.072C454.425 173.232 454.668 173.312 454.964 173.312ZM459.495 168.717L459.524 169.381C459.928 168.873 460.455 168.619 461.106 168.619C462.223 168.619 462.786 169.249 462.796 170.509V174H461.893V170.504C461.889 170.123 461.801 169.841 461.629 169.659C461.46 169.477 461.194 169.386 460.833 169.386C460.54 169.386 460.283 169.464 460.062 169.62C459.84 169.776 459.668 169.981 459.544 170.235V174H458.641V168.717H459.495ZM471.204 174H466.546V173.351L469.007 170.616C469.371 170.203 469.622 169.868 469.759 169.61C469.899 169.35 469.969 169.081 469.969 168.805C469.969 168.434 469.856 168.129 469.632 167.892C469.407 167.654 469.108 167.535 468.733 167.535C468.284 167.535 467.934 167.664 467.684 167.921C467.436 168.175 467.312 168.53 467.312 168.985H466.409C466.409 168.331 466.619 167.802 467.039 167.398C467.462 166.995 468.027 166.793 468.733 166.793C469.394 166.793 469.917 166.967 470.301 167.315C470.685 167.66 470.877 168.121 470.877 168.697C470.877 169.397 470.431 170.23 469.539 171.197L467.635 173.263H471.204V174ZM472.576 170.436L472.938 166.891H476.58V167.726H473.704L473.489 169.664C473.838 169.459 474.233 169.356 474.676 169.356C475.324 169.356 475.838 169.571 476.219 170.001C476.6 170.427 476.79 171.005 476.79 171.734C476.79 172.467 476.591 173.045 476.194 173.468C475.8 173.888 475.249 174.098 474.539 174.098C473.911 174.098 473.398 173.924 473.001 173.575C472.604 173.227 472.378 172.745 472.322 172.13H473.177C473.232 172.537 473.377 172.844 473.611 173.053C473.846 173.258 474.155 173.36 474.539 173.36C474.959 173.36 475.288 173.217 475.525 172.931C475.766 172.644 475.887 172.249 475.887 171.744C475.887 171.269 475.757 170.888 475.496 170.602C475.239 170.312 474.896 170.167 474.466 170.167C474.072 170.167 473.763 170.253 473.538 170.426L473.299 170.621L472.576 170.436Z" fill="#92929D"/>
<path d="M33.2 23.88V31H31.36V28.12H28.48V31H26.64V23.88H28.48V26.65H31.36V23.88H33.2ZM39.7818 29.53H36.6218L35.9918 31H34.1118L37.4418 23.88H38.9218L42.2618 31H40.4118L39.7818 29.53ZM39.1718 28.12L38.2018 25.87L37.2318 28.12H39.1718ZM45.6399 31.09C45.1066 31.09 44.5799 31.02 44.0599 30.88C43.5399 30.74 43.1166 30.55 42.7899 30.31L43.3799 28.98C43.7266 29.2 44.0933 29.37 44.4799 29.49C44.8733 29.6033 45.2666 29.66 45.6599 29.66C46.0599 29.66 46.3666 29.6067 46.5799 29.5C46.7933 29.3867 46.8999 29.23 46.8999 29.03C46.8999 28.85 46.8033 28.7033 46.6099 28.59C46.4166 28.47 46.0533 28.3533 45.5199 28.24C44.8466 28.1067 44.3233 27.9433 43.9499 27.75C43.5766 27.55 43.3133 27.3167 43.1599 27.05C43.0133 26.7833 42.9399 26.46 42.9399 26.08C42.9399 25.6467 43.0633 25.2567 43.3099 24.91C43.5566 24.5567 43.9033 24.2833 44.3499 24.09C44.7966 23.89 45.3066 23.79 45.8799 23.79C46.3933 23.79 46.8899 23.8633 47.3699 24.01C47.8566 24.15 48.2366 24.3367 48.5099 24.57L47.9299 25.9C47.6166 25.68 47.2866 25.5133 46.9399 25.4C46.5933 25.28 46.2466 25.22 45.8999 25.22C45.5599 25.22 45.2866 25.2867 45.0799 25.42C44.8733 25.5467 44.7699 25.72 44.7699 25.94C44.7699 26.06 44.8066 26.16 44.8799 26.24C44.9533 26.32 45.0899 26.4 45.2899 26.48C45.4899 26.5533 45.7899 26.6333 46.1899 26.72C46.8366 26.86 47.3433 27.03 47.7099 27.23C48.0833 27.4233 48.3466 27.6533 48.4999 27.92C48.6533 28.18 48.7299 28.4933 48.7299 28.86C48.7299 29.5533 48.4599 30.1 47.9199 30.5C47.3799 30.8933 46.6199 31.09 45.6399 31.09ZM56.8387 23.88V31H54.9987V28.12H52.1187V31H50.2787V23.88H52.1187V26.65H54.9987V23.88H56.8387ZM64.8105 31H62.8205L61.9005 28.63C61.7938 28.3633 61.5438 28.23 61.1505 28.23H60.4705V31H58.6205V23.88H61.9305C62.7905 23.88 63.4371 24.0667 63.8705 24.44C64.3038 24.8067 64.5205 25.3333 64.5205 26.02C64.5205 26.5 64.3905 26.9167 64.1305 27.27C63.8771 27.6167 63.5171 27.8633 63.0505 28.01C63.2505 28.05 63.4305 28.1433 63.5905 28.29C63.7505 28.4367 63.8771 28.6333 63.9705 28.88L64.8105 31ZM61.6305 26.83C62.0305 26.83 62.3205 26.77 62.5005 26.65C62.6805 26.5233 62.7705 26.33 62.7705 26.07C62.7705 25.7967 62.6805 25.6 62.5005 25.48C62.3271 25.36 62.0371 25.3 61.6305 25.3H60.4505V26.83H61.6305ZM70.9517 29.53H67.7917L67.1617 31H65.2817L68.6117 23.88H70.0917L73.4317 31H71.5817L70.9517 29.53ZM70.3417 28.12L69.3717 25.87L68.4017 28.12H70.3417ZM75.0095 25.4H72.8895V23.88H79.0295V25.4H76.9095V31H75.0095V25.4ZM80.2865 23.88H85.3665V25.32H82.1165V26.66H85.1565V28.1H82.1165V29.56H85.3665V31H80.2865V23.88ZM91.942 32.82C91.4354 31.98 91.0787 31.22 90.872 30.54C90.672 29.8533 90.572 29.12 90.572 28.34C90.572 27.5533 90.6754 26.81 90.882 26.11C91.0954 25.4033 91.4554 24.66 91.962 23.88H93.392C93.0187 24.8333 92.7654 25.64 92.632 26.3C92.4987 26.9533 92.432 27.6333 92.432 28.34C92.432 29.0333 92.4954 29.71 92.622 30.37C92.7554 31.0233 93.002 31.84 93.362 32.82H91.942ZM96.7947 25.4H94.6747V23.88H100.815V25.4H98.6947V31H96.7947V25.4ZM108.632 23.88V31H106.792V28.12H103.912V31H102.072V23.88H103.912V26.65H106.792V23.88H108.632ZM109.493 31.64L112.123 23.42H113.583L110.943 31.64H109.493ZM117.019 31.09C116.485 31.09 115.959 31.02 115.439 30.88C114.919 30.74 114.495 30.55 114.169 30.31L114.759 28.98C115.105 29.2 115.472 29.37 115.859 29.49C116.252 29.6033 116.645 29.66 117.039 29.66C117.439 29.66 117.745 29.6067 117.959 29.5C118.172 29.3867 118.279 29.23 118.279 29.03C118.279 28.85 118.182 28.7033 117.989 28.59C117.795 28.47 117.432 28.3533 116.899 28.24C116.225 28.1067 115.702 27.9433 115.329 27.75C114.955 27.55 114.692 27.3167 114.539 27.05C114.392 26.7833 114.319 26.46 114.319 26.08C114.319 25.6467 114.442 25.2567 114.689 24.91C114.935 24.5567 115.282 24.2833 115.729 24.09C116.175 23.89 116.685 23.79 117.259 23.79C117.772 23.79 118.269 23.8633 118.749 24.01C119.235 24.15 119.615 24.3367 119.889 24.57L119.309 25.9C118.995 25.68 118.665 25.5133 118.319 25.4C117.972 25.28 117.625 25.22 117.279 25.22C116.939 25.22 116.665 25.2867 116.459 25.42C116.252 25.5467 116.149 25.72 116.149 25.94C116.149 26.06 116.185 26.16 116.259 26.24C116.332 26.32 116.469 26.4 116.669 26.48C116.869 26.5533 117.169 26.6333 117.569 26.72C118.215 26.86 118.722 27.03 119.089 27.23C119.462 27.4233 119.725 27.6533 119.879 27.92C120.032 28.18 120.109 28.4933 120.109 28.86C120.109 29.5533 119.839 30.1 119.299 30.5C118.759 30.8933 117.999 31.09 117.019 31.09ZM121.268 32.82C121.628 31.8467 121.871 31.0333 121.998 30.38C122.131 29.72 122.198 29.04 122.198 28.34C122.198 27.6267 122.131 26.9433 121.998 26.29C121.871 25.63 121.621 24.8267 121.248 23.88H122.668C123.168 24.6667 123.524 25.4133 123.738 26.12C123.958 26.8267 124.068 27.5667 124.068 28.34C124.068 29.1133 123.961 29.8433 123.748 30.53C123.541 31.21 123.184 31.9733 122.678 32.82H121.268Z" fill="black"/>
<line x1="50.4976" y1="70.5023" x2="480.498" y2="70.5023" stroke="#F1F1F5" stroke-linecap="square" stroke-dasharray="4 4"/>
<line x1="50.4976" y1="99.5023" x2="480.498" y2="99.5023" stroke="#F1F1F5" stroke-linecap="square" stroke-dasharray="4 4"/>
<line x1="50.4976" y1="127.502" x2="480.498" y2="127.502" stroke="#F1F1F5" stroke-linecap="square" stroke-dasharray="4 4"/>
<line x1="50.4976" y1="155.502" x2="480.498" y2="155.502" stroke="#F1F1F5" stroke-linecap="square" stroke-dasharray="4 4"/>
<line x1="85.5" y1="70.5" x2="85.5" y2="155.5" stroke="#F1F1F5" stroke-linecap="square" stroke-dasharray="4 4"/>
<line x1="120.5" y1="70.5" x2="120.5" y2="155.5" stroke="#F1F1F5" stroke-linecap="square" stroke-dasharray="4 4"/>
<line x1="192.5" y1="70.5" x2="192.5" y2="155.5" stroke="#F1F1F5" stroke-linecap="square" stroke-dasharray="4 4"/>
<line x1="228.5" y1="70.5" x2="228.5" y2="155.5" stroke="#F1F1F5" stroke-linecap="square" stroke-dasharray="4 4"/>
<line x1="264.5" y1="70.5" x2="264.5" y2="155.5" stroke="#F1F1F5" stroke-linecap="square" stroke-dasharray="4 4"/>
<line x1="300.5" y1="70.5" x2="300.5" y2="155.5" stroke="#F1F1F5" stroke-linecap="square" stroke-dasharray="4 4"/>
<line x1="336.5" y1="70.5" x2="336.5" y2="155.5" stroke="#F1F1F5" stroke-linecap="square" stroke-dasharray="4 4"/>
<line x1="372.5" y1="70.5" x2="372.5" y2="155.5" stroke="#F1F1F5" stroke-linecap="square" stroke-dasharray="4 4"/>
<line x1="408.5" y1="70.5" x2="408.5" y2="155.5" stroke="#F1F1F5" stroke-linecap="square" stroke-dasharray="4 4"/>
<line x1="444.5" y1="70.5" x2="444.5" y2="155.5" stroke="#F1F1F5" stroke-linecap="square" stroke-dasharray="4 4"/>
<line x1="156.5" y1="70.5" x2="156.5" y2="155.5" stroke="#F1F1F5" stroke-linecap="square" stroke-dasharray="4 4"/>
<rect x="62" y="112" width="12" height="44" fill="#FFC60D"/>
<rect x="97" y="108" width="12" height="48" fill="#FFC60D"/>
<rect x="133" y="116" width="12" height="40" fill="#FFC60D"/>
<rect x="169" y="104" width="12" height="52" fill="#FFC60D"/>
<rect x="205" y="112" width="12" height="44" fill="#FFC60D"/>
<rect x="241" y="112" width="12" height="44" fill="#FFC60D"/>
<rect x="277" y="118" width="12" height="38" fill="#FFC60D"/>
<rect x="313" y="118" width="12" height="38" fill="#FFC60D"/>
<rect x="349" y="118" width="12" height="38" fill="#FFC60D"/>
<rect x="385" y="118" width="12" height="38" fill="#FFC60D"/>
<rect x="421" y="118" width="12" height="38" fill="#FFC60D"/>
<rect x="457" y="118" width="12" height="38" fill="#FFC60D"/>
</svg>