<svg width="74" height="74" viewBox="0 0 74 74" fill="none" xmlns="http://www.w3.org/2000/svg">
<path fill-rule="evenodd" clip-rule="evenodd" d="M37 72C56.33 72 72 56.33 72 37C72 17.67 56.33 2 37 2C17.67 2 2 17.67 2 37C2 56.33 17.67 72 37 72Z" stroke="#FF974A" stroke-opacity="0.1" stroke-width="3"/>
<path d="M35.4632 27.0696C36.0318 25.6435 37.9682 25.6435 38.5368 27.0696L40.3517 31.6221C40.5914 32.2233 41.1333 32.6341 41.7555 32.6862L46.4662 33.0802C47.942 33.2036 48.5404 35.1251 47.416 36.1299L43.8269 39.3375C43.3529 39.7611 43.1459 40.4258 43.2907 41.0592L44.3873 45.8552C44.7308 47.3577 43.1641 48.5452 41.9007 47.74L37.8676 45.17C37.3349 44.8306 36.6651 44.8306 36.1324 45.17L32.0993 47.74C30.8359 48.5452 29.2692 47.3576 29.6128 45.8552L30.7093 41.0592C30.8541 40.4258 30.6471 39.7611 30.1731 39.3375L26.584 36.1299C25.4596 35.1251 26.058 33.2036 27.5338 33.0802L32.2445 32.6862C32.8667 32.6341 33.4086 32.2233 33.6483 31.6221L35.4632 27.0696Z" stroke="#FF974A" stroke-width="2"/>
<path d="M2 37C2 56.33 17.67 72 37 72V72C56.33 72 72 56.33 72 37C72 17.67 56.33 2 37 2" stroke="#FF974A" stroke-width="3" stroke-linecap="round" stroke-linejoin="round"/>
</svg>
