<svg width="219" height="33" viewBox="0 0 219 33" fill="none" xmlns="http://www.w3.org/2000/svg">
<path d="M2 21.8136C2.59548 22.4939 5.12276 20.9733 8.21464 21.8359C10.6492 22.5151 12.3832 16.6214 15.5 17.2805C21.4157 18.5316 20.7567 27.5119 23.5 30.5C26.2433 33.488 31.093 27.5 36 27.5C40.907 27.5 43.6488 12.9714 45.5 9.49998C47.2731 6.17499 58.478 14.3806 64 13.5001C70.095 12.5282 71.7276 29.7297 79 28.7335C82.8761 28.2026 87.0354 4.89432 90.5 6.49999C93.9646 8.10567 95.2082 11.2622 103 12.5001C107.5 15.5001 110.699 13.0769 117 13.5001C123.301 13.9232 127.848 9.39462 134.5 10.5C141.152 11.6053 144.747 14.1922 151 19.6084C156.519 24.3889 157.15 10.6053 165 9.49998C172.85 8.39462 177.775 2.44214 181.5 2C185.225 1.55786 189.307 5.2841 192.5 6.49999C195.693 7.71589 195.215 12.5001 202 12.5001C208.785 12.5001 206.775 16.8316 210.5 16.5C214.225 16.1684 215.803 21.0454 217 19.6084" stroke="url(#paint0_linear)" stroke-width="2.48592" stroke-linecap="round" stroke-linejoin="round"/>
<defs>
<linearGradient id="paint0_linear" x1="217" y1="1.96375" x2="2" y2="1.96375" gradientUnits="userSpaceOnUse">
<stop stop-color="#38F9D7"/>
<stop offset="1" stop-color="#43E97B"/>
</linearGradient>
</defs>
</svg>
