<svg xmlns="http://www.w3.org/2000/svg" width="768" height="397" viewBox="0 0 768 397" fill="none">

<path d="M653.88 32V24.88H654.7V31.3H658.27V32H653.88ZM661.149 32.07C660.703 32.07 660.309 31.9667 659.969 31.76C659.636 31.5467 659.376 31.2467 659.189 30.86C659.009 30.4667 658.919 30.0067 658.919 29.48C658.919 28.9533 659.013 28.4933 659.199 28.1C659.386 27.7067 659.646 27.4 659.979 27.18C660.319 26.96 660.709 26.85 661.149 26.85C661.609 26.85 661.999 26.9633 662.319 27.19C662.639 27.4167 662.856 27.74 662.969 28.16L662.849 28.24V26.97H663.649V32H662.849V30.7L662.969 30.76C662.856 31.18 662.639 31.5033 662.319 31.73C661.999 31.9567 661.609 32.07 661.149 32.07ZM661.309 31.4C661.803 31.4 662.183 31.2333 662.449 30.9C662.716 30.56 662.849 30.08 662.849 29.46C662.849 28.84 662.713 28.3633 662.439 28.03C662.173 27.6967 661.796 27.53 661.309 27.53C660.816 27.53 660.429 27.7033 660.149 28.05C659.876 28.39 659.739 28.8667 659.739 29.48C659.739 30.0933 659.876 30.5667 660.149 30.9C660.429 31.2333 660.816 31.4 661.309 31.4ZM666.916 32.07C666.069 32.07 665.399 31.8533 664.906 31.42L665.176 30.82C665.442 31.0267 665.716 31.18 665.996 31.28C666.282 31.3733 666.599 31.42 666.946 31.42C667.326 31.42 667.612 31.3567 667.806 31.23C668.006 31.0967 668.106 30.9067 668.106 30.66C668.106 30.46 668.039 30.3033 667.906 30.19C667.772 30.07 667.552 29.9733 667.246 29.9L666.396 29.7C665.976 29.6067 665.649 29.44 665.416 29.2C665.189 28.96 665.076 28.6733 665.076 28.34C665.076 28.0467 665.156 27.79 665.316 27.57C665.476 27.3433 665.699 27.1667 665.986 27.04C666.272 26.9133 666.612 26.85 667.006 26.85C667.359 26.85 667.692 26.9067 668.006 27.02C668.319 27.1333 668.582 27.2967 668.796 27.51L668.526 28.1C668.286 27.9 668.039 27.7533 667.786 27.66C667.539 27.56 667.279 27.51 667.006 27.51C666.646 27.51 666.366 27.58 666.166 27.72C665.972 27.86 665.876 28.05 665.876 28.29C665.876 28.4967 665.936 28.66 666.056 28.78C666.182 28.9 666.382 28.9933 666.656 29.06L667.506 29.27C667.979 29.37 668.326 29.5367 668.546 29.77C668.772 29.9967 668.886 30.2867 668.886 30.64C668.886 31.0733 668.709 31.42 668.356 31.68C668.002 31.94 667.522 32.07 666.916 32.07ZM669.418 27.61V26.97H672.648V27.61H669.418ZM672.628 31.28V31.97C672.514 32.0033 672.401 32.0267 672.288 32.04C672.181 32.06 672.061 32.07 671.928 32.07C671.461 32.07 671.088 31.9367 670.808 31.67C670.534 31.4033 670.398 31.0033 670.398 30.47V25.68L671.208 25.39V30.36C671.208 30.6267 671.244 30.8333 671.318 30.98C671.398 31.1267 671.504 31.23 671.638 31.29C671.771 31.3433 671.921 31.37 672.088 31.37C672.188 31.37 672.278 31.3633 672.358 31.35C672.438 31.3367 672.528 31.3133 672.628 31.28ZM678.301 31.63V25.36L678.771 25.6L676.841 26.83V26.04L678.661 24.88H679.131V31.63H678.301ZM676.731 32V31.31H680.701V32H676.731ZM682.277 32V31.38L684.767 28.62C685.101 28.2467 685.344 27.91 685.497 27.61C685.651 27.31 685.727 27.01 685.727 26.71C685.727 26.3167 685.614 26.0167 685.387 25.81C685.161 25.5967 684.837 25.49 684.417 25.49C684.071 25.49 683.731 25.56 683.397 25.7C683.064 25.8333 682.731 26.0367 682.397 26.31L682.087 25.68C682.367 25.4133 682.721 25.2 683.147 25.04C683.574 24.88 684.004 24.8 684.437 24.8C684.871 24.8 685.244 24.8767 685.557 25.03C685.877 25.1767 686.124 25.39 686.297 25.67C686.471 25.95 686.557 26.2833 686.557 26.67C686.557 27.0767 686.464 27.47 686.277 27.85C686.097 28.2233 685.794 28.6433 685.367 29.11L682.967 31.71L682.907 31.31H686.857V32H682.277ZM690.931 32V24.88H693.321C694.081 24.88 694.727 25.02 695.261 25.3C695.794 25.5733 696.201 25.9767 696.481 26.51C696.761 27.0367 696.901 27.6767 696.901 28.43C696.901 29.19 696.757 29.8367 696.471 30.37C696.191 30.8967 695.784 31.3 695.251 31.58C694.717 31.86 694.074 32 693.321 32H690.931ZM691.751 31.3H693.271C694.191 31.3 694.881 31.06 695.341 30.58C695.807 30.1 696.041 29.3833 696.041 28.43C696.041 26.53 695.117 25.58 693.271 25.58H691.751V31.3ZM700.222 32.07C699.775 32.07 699.382 31.9667 699.042 31.76C698.708 31.5467 698.448 31.2467 698.262 30.86C698.082 30.4667 697.992 30.0067 697.992 29.48C697.992 28.9533 698.085 28.4933 698.272 28.1C698.458 27.7067 698.718 27.4 699.052 27.18C699.392 26.96 699.782 26.85 700.222 26.85C700.682 26.85 701.072 26.9633 701.392 27.19C701.712 27.4167 701.928 27.74 702.042 28.16L701.922 28.24V26.97H702.722V32H701.922V30.7L702.042 30.76C701.928 31.18 701.712 31.5033 701.392 31.73C701.072 31.9567 700.682 32.07 700.222 32.07ZM700.382 31.4C700.875 31.4 701.255 31.2333 701.522 30.9C701.788 30.56 701.922 30.08 701.922 29.46C701.922 28.84 701.785 28.3633 701.512 28.03C701.245 27.6967 700.868 27.53 700.382 27.53C699.888 27.53 699.502 27.7033 699.222 28.05C698.948 28.39 698.812 28.8667 698.812 29.48C698.812 30.0933 698.948 30.5667 699.222 30.9C699.502 31.2333 699.888 31.4 700.382 31.4ZM704.048 34.27L703.878 33.64C704.184 33.5667 704.441 33.48 704.648 33.38C704.861 33.2867 705.038 33.1633 705.178 33.01C705.324 32.8567 705.451 32.6533 705.558 32.4L705.878 31.66L706.058 31.41L707.898 26.97H708.708L706.358 32.46C706.178 32.8667 705.974 33.19 705.748 33.43C705.521 33.6767 705.264 33.8633 704.978 33.99C704.698 34.1167 704.388 34.21 704.048 34.27ZM705.888 32.26L703.628 26.97H704.478L706.298 31.41L705.888 32.26ZM711.212 32.07C710.366 32.07 709.696 31.8533 709.202 31.42L709.472 30.82C709.739 31.0267 710.012 31.18 710.292 31.28C710.579 31.3733 710.896 31.42 711.242 31.42C711.622 31.42 711.909 31.3567 712.102 31.23C712.302 31.0967 712.402 30.9067 712.402 30.66C712.402 30.46 712.336 30.3033 712.202 30.19C712.069 30.07 711.849 29.9733 711.542 29.9L710.692 29.7C710.272 29.6067 709.946 29.44 709.712 29.2C709.486 28.96 709.372 28.6733 709.372 28.34C709.372 28.0467 709.452 27.79 709.612 27.57C709.772 27.3433 709.996 27.1667 710.282 27.04C710.569 26.9133 710.909 26.85 711.302 26.85C711.656 26.85 711.989 26.9067 712.302 27.02C712.616 27.1333 712.879 27.2967 713.092 27.51L712.822 28.1C712.582 27.9 712.336 27.7533 712.082 27.66C711.836 27.56 711.576 27.51 711.302 27.51C710.942 27.51 710.662 27.58 710.462 27.72C710.269 27.86 710.172 28.05 710.172 28.29C710.172 28.4967 710.232 28.66 710.352 28.78C710.479 28.9 710.679 28.9933 710.952 29.06L711.802 29.27C712.276 29.37 712.622 29.5367 712.842 29.77C713.069 29.9967 713.182 30.2867 713.182 30.64C713.182 31.0733 713.006 31.42 712.652 31.68C712.299 31.94 711.819 32.07 711.212 32.07Z" fill="#696974"/>
<path fill-rule="evenodd" clip-rule="evenodd" d="M741.417 22.1025C741.093 22.1025 740.833 22.365 740.833 22.6858V24.1325C739.547 22.2046 737.345 21 735 21C731.138 21 728 24.1413 728 28C728 28.3238 728.26 28.5833 728.583 28.5833C728.904 28.5833 729.167 28.3238 729.167 28C729.167 24.7829 731.783 22.1667 735 22.1667C737.05 22.1667 738.967 23.2721 740.014 25.0192H738.5C738.176 25.0192 737.917 25.2817 737.917 25.6025C737.917 25.9262 738.176 26.1858 738.5 26.1858H741.417C741.737 26.1858 742 25.9262 742 25.6025V22.6858C742 22.365 741.737 22.1025 741.417 22.1025Z" fill="#696974"/>
<path fill-rule="evenodd" clip-rule="evenodd" d="M741.417 27.4167C741.093 27.4167 740.833 27.6792 740.833 28C740.833 31.2171 738.214 33.8333 735 33.8333C732.947 33.8333 731.03 32.7279 729.986 30.9808H731.5C731.821 30.9808 732.083 30.7183 732.083 30.3975C732.083 30.0767 731.821 29.8142 731.5 29.8142H728.583C728.26 29.8142 728 30.0767 728 30.3975V33.3142C728 33.635 728.26 33.8975 728.583 33.8975C728.904 33.8975 729.167 33.635 729.167 33.3142V31.8675C730.453 33.7954 732.652 35 735 35C738.859 35 742 31.8587 742 28C742 27.6792 741.737 27.4167 741.417 27.4167Z" fill="#696974"/>
<path d="M32.6797 71.3613C32.6797 72.6309 32.4629 73.5742 32.0293 74.1914C31.5957 74.8086 30.918 75.1172 29.9961 75.1172C29.0859 75.1172 28.4121 74.8164 27.9746 74.2148C27.5371 73.6094 27.3105 72.707 27.2949 71.5078V70.0605C27.2949 68.8066 27.5117 67.875 27.9453 67.2656C28.3789 66.6562 29.0586 66.3516 29.9844 66.3516C30.9023 66.3516 31.5781 66.6465 32.0117 67.2363C32.4453 67.8223 32.668 68.7285 32.6797 69.9551V71.3613ZM31.5957 69.8789C31.5957 68.9609 31.4668 68.293 31.209 67.875C30.9512 67.4531 30.543 67.2422 29.9844 67.2422C29.4297 67.2422 29.0254 67.4512 28.7715 67.8691C28.5176 68.2871 28.3867 68.9297 28.3789 69.7969V71.5312C28.3789 72.4531 28.5117 73.1348 28.7773 73.5762C29.0469 74.0137 29.4531 74.2324 29.9961 74.2324C30.5312 74.2324 30.9277 74.0254 31.1855 73.6113C31.4473 73.1973 31.584 72.5449 31.5957 71.6543V69.8789ZM34.2031 74.4316C34.2031 74.2441 34.2578 74.0879 34.3672 73.9629C34.4805 73.8379 34.6484 73.7754 34.8711 73.7754C35.0938 73.7754 35.2617 73.8379 35.375 73.9629C35.4922 74.0879 35.5508 74.2441 35.5508 74.4316C35.5508 74.6113 35.4922 74.7617 35.375 74.8828C35.2617 75.0039 35.0938 75.0645 34.8711 75.0645C34.6484 75.0645 34.4805 75.0039 34.3672 74.8828C34.2578 74.7617 34.2031 74.6113 34.2031 74.4316ZM42.582 71.3613C42.582 72.6309 42.3652 73.5742 41.9316 74.1914C41.498 74.8086 40.8203 75.1172 39.8984 75.1172C38.9883 75.1172 38.3145 74.8164 37.877 74.2148C37.4395 73.6094 37.2129 72.707 37.1973 71.5078V70.0605C37.1973 68.8066 37.4141 67.875 37.8477 67.2656C38.2812 66.6562 38.9609 66.3516 39.8867 66.3516C40.8047 66.3516 41.4805 66.6465 41.9141 67.2363C42.3477 67.8223 42.5703 68.7285 42.582 69.9551V71.3613ZM41.498 69.8789C41.498 68.9609 41.3691 68.293 41.1113 67.875C40.8535 67.4531 40.4453 67.2422 39.8867 67.2422C39.332 67.2422 38.9277 67.4512 38.6738 67.8691C38.4199 68.2871 38.2891 68.9297 38.2812 69.7969V71.5312C38.2812 72.4531 38.4141 73.1348 38.6797 73.5762C38.9492 74.0137 39.3555 74.2324 39.8984 74.2324C40.4336 74.2324 40.8301 74.0254 41.0879 73.6113C41.3496 73.1973 41.4863 72.5449 41.498 71.6543V69.8789ZM44.4688 70.7227L44.9023 66.4688H49.2734V67.4707H45.8223L45.5645 69.7969C45.9824 69.5508 46.457 69.4277 46.9883 69.4277C47.7656 69.4277 48.3828 69.6855 48.8398 70.2012C49.2969 70.7129 49.5254 71.4062 49.5254 72.2812C49.5254 73.1602 49.2871 73.8535 48.8105 74.3613C48.3379 74.8652 47.6758 75.1172 46.8242 75.1172C46.0703 75.1172 45.4551 74.9082 44.9785 74.4902C44.502 74.0723 44.2305 73.4941 44.1641 72.7559H45.1895C45.2559 73.2441 45.4297 73.6133 45.7109 73.8633C45.9922 74.1094 46.3633 74.2324 46.8242 74.2324C47.3281 74.2324 47.7227 74.0605 48.0078 73.7168C48.2969 73.373 48.4414 72.8984 48.4414 72.293C48.4414 71.7227 48.2852 71.2656 47.9727 70.9219C47.6641 70.5742 47.252 70.4004 46.7363 70.4004C46.2637 70.4004 45.8926 70.5039 45.623 70.7109L45.3359 70.9453L44.4688 70.7227Z" fill="#92929D"/>
<path d="M49.3203 327.361C49.3203 328.631 49.1035 329.574 48.6699 330.191C48.2363 330.809 47.5586 331.117 46.6367 331.117C45.7266 331.117 45.0527 330.816 44.6152 330.215C44.1777 329.609 43.9512 328.707 43.9355 327.508V326.061C43.9355 324.807 44.1523 323.875 44.5859 323.266C45.0195 322.656 45.6992 322.352 46.625 322.352C47.543 322.352 48.2188 322.646 48.6523 323.236C49.0859 323.822 49.3086 324.729 49.3203 325.955V327.361ZM48.2363 325.879C48.2363 324.961 48.1074 324.293 47.8496 323.875C47.5918 323.453 47.1836 323.242 46.625 323.242C46.0703 323.242 45.666 323.451 45.4121 323.869C45.1582 324.287 45.0273 324.93 45.0195 325.797V327.531C45.0195 328.453 45.1523 329.135 45.418 329.576C45.6875 330.014 46.0938 330.232 46.6367 330.232C47.1719 330.232 47.5684 330.025 47.8262 329.611C48.0879 329.197 48.2246 328.545 48.2363 327.654V325.879Z" fill="#92929D"/>
<path d="M32.6797 276.361C32.6797 277.631 32.4629 278.574 32.0293 279.191C31.5957 279.809 30.918 280.117 29.9961 280.117C29.0859 280.117 28.4121 279.816 27.9746 279.215C27.5371 278.609 27.3105 277.707 27.2949 276.508V275.061C27.2949 273.807 27.5117 272.875 27.9453 272.266C28.3789 271.656 29.0586 271.352 29.9844 271.352C30.9023 271.352 31.5781 271.646 32.0117 272.236C32.4453 272.822 32.668 273.729 32.6797 274.955V276.361ZM31.5957 274.879C31.5957 273.961 31.4668 273.293 31.209 272.875C30.9512 272.453 30.543 272.242 29.9844 272.242C29.4297 272.242 29.0254 272.451 28.7715 272.869C28.5176 273.287 28.3867 273.93 28.3789 274.797V276.531C28.3789 277.453 28.5117 278.135 28.7773 278.576C29.0469 279.014 29.4531 279.232 29.9961 279.232C30.5312 279.232 30.9277 279.025 31.1855 278.611C31.4473 278.197 31.584 277.545 31.5957 276.654V274.879ZM34.2031 279.432C34.2031 279.244 34.2578 279.088 34.3672 278.963C34.4805 278.838 34.6484 278.775 34.8711 278.775C35.0938 278.775 35.2617 278.838 35.375 278.963C35.4922 279.088 35.5508 279.244 35.5508 279.432C35.5508 279.611 35.4922 279.762 35.375 279.883C35.2617 280.004 35.0938 280.064 34.8711 280.064C34.6484 280.064 34.4805 280.004 34.3672 279.883C34.2578 279.762 34.2031 279.611 34.2031 279.432ZM42.582 276.361C42.582 277.631 42.3652 278.574 41.9316 279.191C41.498 279.809 40.8203 280.117 39.8984 280.117C38.9883 280.117 38.3145 279.816 37.877 279.215C37.4395 278.609 37.2129 277.707 37.1973 276.508V275.061C37.1973 273.807 37.4141 272.875 37.8477 272.266C38.2812 271.656 38.9609 271.352 39.8867 271.352C40.8047 271.352 41.4805 271.646 41.9141 272.236C42.3477 272.822 42.5703 273.729 42.582 274.955V276.361ZM41.498 274.879C41.498 273.961 41.3691 273.293 41.1113 272.875C40.8535 272.453 40.4453 272.242 39.8867 272.242C39.332 272.242 38.9277 272.451 38.6738 272.869C38.4199 273.287 38.2891 273.93 38.2812 274.797V276.531C38.2812 277.453 38.4141 278.135 38.6797 278.576C38.9492 279.014 39.3555 279.232 39.8984 279.232C40.4336 279.232 40.8301 279.025 41.0879 278.611C41.3496 278.197 41.4863 277.545 41.498 276.654V274.879ZM47.5332 280H46.4434V272.775L44.2578 273.578V272.594L47.3633 271.428H47.5332V280Z" fill="#92929D"/>
<path d="M32.6797 224.361C32.6797 225.631 32.4629 226.574 32.0293 227.191C31.5957 227.809 30.918 228.117 29.9961 228.117C29.0859 228.117 28.4121 227.816 27.9746 227.215C27.5371 226.609 27.3105 225.707 27.2949 224.508V223.061C27.2949 221.807 27.5117 220.875 27.9453 220.266C28.3789 219.656 29.0586 219.352 29.9844 219.352C30.9023 219.352 31.5781 219.646 32.0117 220.236C32.4453 220.822 32.668 221.729 32.6797 222.955V224.361ZM31.5957 222.879C31.5957 221.961 31.4668 221.293 31.209 220.875C30.9512 220.453 30.543 220.242 29.9844 220.242C29.4297 220.242 29.0254 220.451 28.7715 220.869C28.5176 221.287 28.3867 221.93 28.3789 222.797V224.531C28.3789 225.453 28.5117 226.135 28.7773 226.576C29.0469 227.014 29.4531 227.232 29.9961 227.232C30.5312 227.232 30.9277 227.025 31.1855 226.611C31.4473 226.197 31.584 225.545 31.5957 224.654V222.879ZM34.2031 227.432C34.2031 227.244 34.2578 227.088 34.3672 226.963C34.4805 226.838 34.6484 226.775 34.8711 226.775C35.0938 226.775 35.2617 226.838 35.375 226.963C35.4922 227.088 35.5508 227.244 35.5508 227.432C35.5508 227.611 35.4922 227.762 35.375 227.883C35.2617 228.004 35.0938 228.064 34.8711 228.064C34.6484 228.064 34.4805 228.004 34.3672 227.883C34.2578 227.762 34.2031 227.611 34.2031 227.432ZM42.582 224.361C42.582 225.631 42.3652 226.574 41.9316 227.191C41.498 227.809 40.8203 228.117 39.8984 228.117C38.9883 228.117 38.3145 227.816 37.877 227.215C37.4395 226.609 37.2129 225.707 37.1973 224.508V223.061C37.1973 221.807 37.4141 220.875 37.8477 220.266C38.2812 219.656 38.9609 219.352 39.8867 219.352C40.8047 219.352 41.4805 219.646 41.9141 220.236C42.3477 220.822 42.5703 221.729 42.582 222.955V224.361ZM41.498 222.879C41.498 221.961 41.3691 221.293 41.1113 220.875C40.8535 220.453 40.4453 220.242 39.8867 220.242C39.332 220.242 38.9277 220.451 38.6738 220.869C38.4199 221.287 38.2891 221.93 38.2812 222.797V224.531C38.2812 225.453 38.4141 226.135 38.6797 226.576C38.9492 227.014 39.3555 227.232 39.8984 227.232C40.4336 227.232 40.8301 227.025 41.0879 226.611C41.3496 226.197 41.4863 225.545 41.498 224.654V222.879ZM49.5605 228H43.9707V227.221L46.9238 223.939C47.3613 223.443 47.6621 223.041 47.8262 222.732C47.9941 222.42 48.0781 222.098 48.0781 221.766C48.0781 221.32 47.9434 220.955 47.6738 220.67C47.4043 220.385 47.0449 220.242 46.5957 220.242C46.0566 220.242 45.6367 220.396 45.3359 220.705C45.0391 221.01 44.8906 221.436 44.8906 221.982H43.8066C43.8066 221.197 44.0586 220.562 44.5625 220.078C45.0703 219.594 45.748 219.352 46.5957 219.352C47.3887 219.352 48.0156 219.561 48.4766 219.979C48.9375 220.393 49.168 220.945 49.168 221.637C49.168 222.477 48.6328 223.477 47.5625 224.637L45.2773 227.115H49.5605V228Z" fill="#92929D"/>
<path d="M32.6797 173.361C32.6797 174.631 32.4629 175.574 32.0293 176.191C31.5957 176.809 30.918 177.117 29.9961 177.117C29.0859 177.117 28.4121 176.816 27.9746 176.215C27.5371 175.609 27.3105 174.707 27.2949 173.508V172.061C27.2949 170.807 27.5117 169.875 27.9453 169.266C28.3789 168.656 29.0586 168.352 29.9844 168.352C30.9023 168.352 31.5781 168.646 32.0117 169.236C32.4453 169.822 32.668 170.729 32.6797 171.955V173.361ZM31.5957 171.879C31.5957 170.961 31.4668 170.293 31.209 169.875C30.9512 169.453 30.543 169.242 29.9844 169.242C29.4297 169.242 29.0254 169.451 28.7715 169.869C28.5176 170.287 28.3867 170.93 28.3789 171.797V173.531C28.3789 174.453 28.5117 175.135 28.7773 175.576C29.0469 176.014 29.4531 176.232 29.9961 176.232C30.5312 176.232 30.9277 176.025 31.1855 175.611C31.4473 175.197 31.584 174.545 31.5957 173.654V171.879ZM34.2031 176.432C34.2031 176.244 34.2578 176.088 34.3672 175.963C34.4805 175.838 34.6484 175.775 34.8711 175.775C35.0938 175.775 35.2617 175.838 35.375 175.963C35.4922 176.088 35.5508 176.244 35.5508 176.432C35.5508 176.611 35.4922 176.762 35.375 176.883C35.2617 177.004 35.0938 177.064 34.8711 177.064C34.6484 177.064 34.4805 177.004 34.3672 176.883C34.2578 176.762 34.2031 176.611 34.2031 176.432ZM42.582 173.361C42.582 174.631 42.3652 175.574 41.9316 176.191C41.498 176.809 40.8203 177.117 39.8984 177.117C38.9883 177.117 38.3145 176.816 37.877 176.215C37.4395 175.609 37.2129 174.707 37.1973 173.508V172.061C37.1973 170.807 37.4141 169.875 37.8477 169.266C38.2812 168.656 38.9609 168.352 39.8867 168.352C40.8047 168.352 41.4805 168.646 41.9141 169.236C42.3477 169.822 42.5703 170.729 42.582 171.955V173.361ZM41.498 171.879C41.498 170.961 41.3691 170.293 41.1113 169.875C40.8535 169.453 40.4453 169.242 39.8867 169.242C39.332 169.242 38.9277 169.451 38.6738 169.869C38.4199 170.287 38.2891 170.93 38.2812 171.797V173.531C38.2812 174.453 38.4141 175.135 38.6797 175.576C38.9492 176.014 39.3555 176.232 39.8984 176.232C40.4336 176.232 40.8301 176.025 41.0879 175.611C41.3496 175.197 41.4863 174.545 41.498 173.654V171.879ZM45.5469 172.207H46.3613C46.873 172.199 47.2754 172.064 47.5684 171.803C47.8613 171.541 48.0078 171.188 48.0078 170.742C48.0078 169.742 47.5098 169.242 46.5137 169.242C46.0449 169.242 45.6699 169.377 45.3887 169.646C45.1113 169.912 44.9727 170.266 44.9727 170.707H43.8887C43.8887 170.031 44.1348 169.471 44.627 169.025C45.123 168.576 45.752 168.352 46.5137 168.352C47.3184 168.352 47.9492 168.564 48.4062 168.99C48.8633 169.416 49.0918 170.008 49.0918 170.766C49.0918 171.137 48.9707 171.496 48.7285 171.844C48.4902 172.191 48.1641 172.451 47.75 172.623C48.2188 172.771 48.5801 173.018 48.834 173.361C49.0918 173.705 49.2207 174.125 49.2207 174.621C49.2207 175.387 48.9707 175.994 48.4707 176.443C47.9707 176.893 47.3203 177.117 46.5195 177.117C45.7188 177.117 45.0664 176.9 44.5625 176.467C44.0625 176.033 43.8125 175.461 43.8125 174.75H44.9023C44.9023 175.199 45.0488 175.559 45.3418 175.828C45.6348 176.098 46.0273 176.232 46.5195 176.232C47.043 176.232 47.4434 176.096 47.7207 175.822C47.998 175.549 48.1367 175.156 48.1367 174.645C48.1367 174.148 47.9844 173.768 47.6797 173.502C47.375 173.236 46.9355 173.1 46.3613 173.092H45.5469V172.207Z" fill="#92929D"/>
<path d="M32.6797 122.361C32.6797 123.631 32.4629 124.574 32.0293 125.191C31.5957 125.809 30.918 126.117 29.9961 126.117C29.0859 126.117 28.4121 125.816 27.9746 125.215C27.5371 124.609 27.3105 123.707 27.2949 122.508V121.061C27.2949 119.807 27.5117 118.875 27.9453 118.266C28.3789 117.656 29.0586 117.352 29.9844 117.352C30.9023 117.352 31.5781 117.646 32.0117 118.236C32.4453 118.822 32.668 119.729 32.6797 120.955V122.361ZM31.5957 120.879C31.5957 119.961 31.4668 119.293 31.209 118.875C30.9512 118.453 30.543 118.242 29.9844 118.242C29.4297 118.242 29.0254 118.451 28.7715 118.869C28.5176 119.287 28.3867 119.93 28.3789 120.797V122.531C28.3789 123.453 28.5117 124.135 28.7773 124.576C29.0469 125.014 29.4531 125.232 29.9961 125.232C30.5312 125.232 30.9277 125.025 31.1855 124.611C31.4473 124.197 31.584 123.545 31.5957 122.654V120.879ZM34.2031 125.432C34.2031 125.244 34.2578 125.088 34.3672 124.963C34.4805 124.838 34.6484 124.775 34.8711 124.775C35.0938 124.775 35.2617 124.838 35.375 124.963C35.4922 125.088 35.5508 125.244 35.5508 125.432C35.5508 125.611 35.4922 125.762 35.375 125.883C35.2617 126.004 35.0938 126.064 34.8711 126.064C34.6484 126.064 34.4805 126.004 34.3672 125.883C34.2578 125.762 34.2031 125.611 34.2031 125.432ZM42.582 122.361C42.582 123.631 42.3652 124.574 41.9316 125.191C41.498 125.809 40.8203 126.117 39.8984 126.117C38.9883 126.117 38.3145 125.816 37.877 125.215C37.4395 124.609 37.2129 123.707 37.1973 122.508V121.061C37.1973 119.807 37.4141 118.875 37.8477 118.266C38.2812 117.656 38.9609 117.352 39.8867 117.352C40.8047 117.352 41.4805 117.646 41.9141 118.236C42.3477 118.822 42.5703 119.729 42.582 120.955V122.361ZM41.498 120.879C41.498 119.961 41.3691 119.293 41.1113 118.875C40.8535 118.453 40.4453 118.242 39.8867 118.242C39.332 118.242 38.9277 118.451 38.6738 118.869C38.4199 119.287 38.2891 119.93 38.2812 120.797V122.531C38.2812 123.453 38.4141 124.135 38.6797 124.576C38.9492 125.014 39.3555 125.232 39.8984 125.232C40.4336 125.232 40.8301 125.025 41.0879 124.611C41.3496 124.197 41.4863 123.545 41.498 122.654V120.879ZM48.5469 123.135H49.7305V124.02H48.5469V126H47.457V124.02H43.5723V123.381L47.3926 117.469H48.5469V123.135ZM44.8027 123.135H47.457V118.951L47.3281 119.186L44.8027 123.135Z" fill="#92929D"/>
<path d="M707.953 354.469H709.084V360.51C709.084 361.326 708.838 361.965 708.346 362.426C707.857 362.887 707.205 363.117 706.389 363.117C705.541 363.117 704.881 362.9 704.408 362.467C703.936 362.033 703.699 361.426 703.699 360.645H704.824C704.824 361.133 704.957 361.514 705.223 361.787C705.492 362.061 705.881 362.197 706.389 362.197C706.854 362.197 707.229 362.051 707.514 361.758C707.803 361.465 707.949 361.055 707.953 360.527V354.469ZM714.744 363C714.682 362.875 714.631 362.652 714.592 362.332C714.088 362.855 713.486 363.117 712.787 363.117C712.162 363.117 711.648 362.941 711.246 362.59C710.848 362.234 710.648 361.785 710.648 361.242C710.648 360.582 710.898 360.07 711.398 359.707C711.902 359.34 712.609 359.156 713.52 359.156H714.574V358.658C714.574 358.279 714.461 357.979 714.234 357.756C714.008 357.529 713.674 357.416 713.232 357.416C712.846 357.416 712.521 357.514 712.26 357.709C711.998 357.904 711.867 358.141 711.867 358.418H710.777C710.777 358.102 710.889 357.797 711.111 357.504C711.338 357.207 711.643 356.973 712.025 356.801C712.412 356.629 712.836 356.543 713.297 356.543C714.027 356.543 714.6 356.727 715.014 357.094C715.428 357.457 715.643 357.959 715.658 358.6V361.518C715.658 362.1 715.732 362.562 715.881 362.906V363H714.744ZM712.945 362.174C713.285 362.174 713.607 362.086 713.912 361.91C714.217 361.734 714.438 361.506 714.574 361.225V359.924H713.725C712.396 359.924 711.732 360.312 711.732 361.09C711.732 361.43 711.846 361.695 712.072 361.887C712.299 362.078 712.59 362.174 712.945 362.174ZM718.383 356.66L718.418 357.457C718.902 356.848 719.535 356.543 720.316 356.543C721.656 356.543 722.332 357.299 722.344 358.811V363H721.26V358.805C721.256 358.348 721.15 358.01 720.943 357.791C720.74 357.572 720.422 357.463 719.988 357.463C719.637 357.463 719.328 357.557 719.062 357.744C718.797 357.932 718.59 358.178 718.441 358.482V363H717.357V356.66H718.383ZM732.434 363H726.844V362.221L729.797 358.939C730.234 358.443 730.535 358.041 730.699 357.732C730.867 357.42 730.951 357.098 730.951 356.766C730.951 356.32 730.816 355.955 730.547 355.67C730.277 355.385 729.918 355.242 729.469 355.242C728.93 355.242 728.51 355.396 728.209 355.705C727.912 356.01 727.764 356.436 727.764 356.982H726.68C726.68 356.197 726.932 355.562 727.436 355.078C727.943 354.594 728.621 354.352 729.469 354.352C730.262 354.352 730.889 354.561 731.35 354.979C731.811 355.393 732.041 355.945 732.041 356.637C732.041 357.477 731.506 358.477 730.436 359.637L728.15 362.115H732.434V363ZM734.08 358.723L734.514 354.469H738.885V355.471H735.434L735.176 357.797C735.594 357.551 736.068 357.428 736.6 357.428C737.377 357.428 737.994 357.686 738.451 358.201C738.908 358.713 739.137 359.406 739.137 360.281C739.137 361.16 738.898 361.854 738.422 362.361C737.949 362.865 737.287 363.117 736.436 363.117C735.682 363.117 735.066 362.908 734.59 362.49C734.113 362.072 733.842 361.494 733.775 360.756H734.801C734.867 361.244 735.041 361.613 735.322 361.863C735.604 362.109 735.975 362.232 736.436 362.232C736.939 362.232 737.334 362.061 737.619 361.717C737.908 361.373 738.053 360.898 738.053 360.293C738.053 359.723 737.896 359.266 737.584 358.922C737.275 358.574 736.863 358.4 736.348 358.4C735.875 358.4 735.504 358.504 735.234 358.711L734.947 358.945L734.08 358.723Z" fill="#92929D"/>
<path fill-rule="evenodd" clip-rule="evenodd" d="M722 342V64H722.999V342H722Z" fill="#F1F1F5"/>
<path d="M648.953 354.469H650.084V360.51C650.084 361.326 649.838 361.965 649.346 362.426C648.857 362.887 648.205 363.117 647.389 363.117C646.541 363.117 645.881 362.9 645.408 362.467C644.936 362.033 644.699 361.426 644.699 360.645H645.824C645.824 361.133 645.957 361.514 646.223 361.787C646.492 362.061 646.881 362.197 647.389 362.197C647.854 362.197 648.229 362.051 648.514 361.758C648.803 361.465 648.949 361.055 648.953 360.527V354.469ZM655.744 363C655.682 362.875 655.631 362.652 655.592 362.332C655.088 362.855 654.486 363.117 653.787 363.117C653.162 363.117 652.648 362.941 652.246 362.59C651.848 362.234 651.648 361.785 651.648 361.242C651.648 360.582 651.898 360.07 652.398 359.707C652.902 359.34 653.609 359.156 654.52 359.156H655.574V358.658C655.574 358.279 655.461 357.979 655.234 357.756C655.008 357.529 654.674 357.416 654.232 357.416C653.846 357.416 653.521 357.514 653.26 357.709C652.998 357.904 652.867 358.141 652.867 358.418H651.777C651.777 358.102 651.889 357.797 652.111 357.504C652.338 357.207 652.643 356.973 653.025 356.801C653.412 356.629 653.836 356.543 654.297 356.543C655.027 356.543 655.6 356.727 656.014 357.094C656.428 357.457 656.643 357.959 656.658 358.6V361.518C656.658 362.1 656.732 362.562 656.881 362.906V363H655.744ZM653.945 362.174C654.285 362.174 654.607 362.086 654.912 361.91C655.217 361.734 655.438 361.506 655.574 361.225V359.924H654.725C653.396 359.924 652.732 360.312 652.732 361.09C652.732 361.43 652.846 361.695 653.072 361.887C653.299 362.078 653.59 362.174 653.945 362.174ZM659.383 356.66L659.418 357.457C659.902 356.848 660.535 356.543 661.316 356.543C662.656 356.543 663.332 357.299 663.344 358.811V363H662.26V358.805C662.256 358.348 662.15 358.01 661.943 357.791C661.74 357.572 661.422 357.463 660.988 357.463C660.637 357.463 660.328 357.557 660.062 357.744C659.797 357.932 659.59 358.178 659.441 358.482V363H658.357V356.66H659.383ZM673.434 363H667.844V362.221L670.797 358.939C671.234 358.443 671.535 358.041 671.699 357.732C671.867 357.42 671.951 357.098 671.951 356.766C671.951 356.32 671.816 355.955 671.547 355.67C671.277 355.385 670.918 355.242 670.469 355.242C669.93 355.242 669.51 355.396 669.209 355.705C668.912 356.01 668.764 356.436 668.764 356.982H667.68C667.68 356.197 667.932 355.562 668.436 355.078C668.943 354.594 669.621 354.352 670.469 354.352C671.262 354.352 671.889 354.561 672.35 354.979C672.811 355.393 673.041 355.945 673.041 356.637C673.041 357.477 672.506 358.477 671.436 359.637L669.15 362.115H673.434V363ZM679.158 360.135H680.342V361.02H679.158V363H678.068V361.02H674.184V360.381L678.004 354.469H679.158V360.135ZM675.414 360.135H678.068V355.951L677.939 356.186L675.414 360.135Z" fill="#92929D"/>
<path fill-rule="evenodd" clip-rule="evenodd" d="M662 342V64H662.999V342H662Z" fill="#F1F1F5"/>
<path d="M589.953 354.469H591.084V360.51C591.084 361.326 590.838 361.965 590.346 362.426C589.857 362.887 589.205 363.117 588.389 363.117C587.541 363.117 586.881 362.9 586.408 362.467C585.936 362.033 585.699 361.426 585.699 360.645H586.824C586.824 361.133 586.957 361.514 587.223 361.787C587.492 362.061 587.881 362.197 588.389 362.197C588.854 362.197 589.229 362.051 589.514 361.758C589.803 361.465 589.949 361.055 589.953 360.527V354.469ZM596.744 363C596.682 362.875 596.631 362.652 596.592 362.332C596.088 362.855 595.486 363.117 594.787 363.117C594.162 363.117 593.648 362.941 593.246 362.59C592.848 362.234 592.648 361.785 592.648 361.242C592.648 360.582 592.898 360.07 593.398 359.707C593.902 359.34 594.609 359.156 595.52 359.156H596.574V358.658C596.574 358.279 596.461 357.979 596.234 357.756C596.008 357.529 595.674 357.416 595.232 357.416C594.846 357.416 594.521 357.514 594.26 357.709C593.998 357.904 593.867 358.141 593.867 358.418H592.777C592.777 358.102 592.889 357.797 593.111 357.504C593.338 357.207 593.643 356.973 594.025 356.801C594.412 356.629 594.836 356.543 595.297 356.543C596.027 356.543 596.6 356.727 597.014 357.094C597.428 357.457 597.643 357.959 597.658 358.6V361.518C597.658 362.1 597.732 362.562 597.881 362.906V363H596.744ZM594.945 362.174C595.285 362.174 595.607 362.086 595.912 361.91C596.217 361.734 596.438 361.506 596.574 361.225V359.924H595.725C594.396 359.924 593.732 360.312 593.732 361.09C593.732 361.43 593.846 361.695 594.072 361.887C594.299 362.078 594.59 362.174 594.945 362.174ZM600.383 356.66L600.418 357.457C600.902 356.848 601.535 356.543 602.316 356.543C603.656 356.543 604.332 357.299 604.344 358.811V363H603.26V358.805C603.256 358.348 603.15 358.01 602.943 357.791C602.74 357.572 602.422 357.463 601.988 357.463C601.637 357.463 601.328 357.557 601.062 357.744C600.797 357.932 600.59 358.178 600.441 358.482V363H599.357V356.66H600.383ZM614.434 363H608.844V362.221L611.797 358.939C612.234 358.443 612.535 358.041 612.699 357.732C612.867 357.42 612.951 357.098 612.951 356.766C612.951 356.32 612.816 355.955 612.547 355.67C612.277 355.385 611.918 355.242 611.469 355.242C610.93 355.242 610.51 355.396 610.209 355.705C609.912 356.01 609.764 356.436 609.764 356.982H608.68C608.68 356.197 608.932 355.562 609.436 355.078C609.943 354.594 610.621 354.352 611.469 354.352C612.262 354.352 612.889 354.561 613.35 354.979C613.811 355.393 614.041 355.945 614.041 356.637C614.041 357.477 613.506 358.477 612.436 359.637L610.15 362.115H614.434V363ZM617.158 358.207H617.973C618.484 358.199 618.887 358.064 619.18 357.803C619.473 357.541 619.619 357.188 619.619 356.742C619.619 355.742 619.121 355.242 618.125 355.242C617.656 355.242 617.281 355.377 617 355.646C616.723 355.912 616.584 356.266 616.584 356.707H615.5C615.5 356.031 615.746 355.471 616.238 355.025C616.734 354.576 617.363 354.352 618.125 354.352C618.93 354.352 619.561 354.564 620.018 354.99C620.475 355.416 620.703 356.008 620.703 356.766C620.703 357.137 620.582 357.496 620.34 357.844C620.102 358.191 619.775 358.451 619.361 358.623C619.83 358.771 620.191 359.018 620.445 359.361C620.703 359.705 620.832 360.125 620.832 360.621C620.832 361.387 620.582 361.994 620.082 362.443C619.582 362.893 618.932 363.117 618.131 363.117C617.33 363.117 616.678 362.9 616.174 362.467C615.674 362.033 615.424 361.461 615.424 360.75H616.514C616.514 361.199 616.66 361.559 616.953 361.828C617.246 362.098 617.639 362.232 618.131 362.232C618.654 362.232 619.055 362.096 619.332 361.822C619.609 361.549 619.748 361.156 619.748 360.645C619.748 360.148 619.596 359.768 619.291 359.502C618.986 359.236 618.547 359.1 617.973 359.092H617.158V358.207Z" fill="#92929D"/>
<path fill-rule="evenodd" clip-rule="evenodd" d="M603 342V64H603.999V342H603Z" fill="#F1F1F5"/>
<path d="M530.953 354.469H532.084V360.51C532.084 361.326 531.838 361.965 531.346 362.426C530.857 362.887 530.205 363.117 529.389 363.117C528.541 363.117 527.881 362.9 527.408 362.467C526.936 362.033 526.699 361.426 526.699 360.645H527.824C527.824 361.133 527.957 361.514 528.223 361.787C528.492 362.061 528.881 362.197 529.389 362.197C529.854 362.197 530.229 362.051 530.514 361.758C530.803 361.465 530.949 361.055 530.953 360.527V354.469ZM537.744 363C537.682 362.875 537.631 362.652 537.592 362.332C537.088 362.855 536.486 363.117 535.787 363.117C535.162 363.117 534.648 362.941 534.246 362.59C533.848 362.234 533.648 361.785 533.648 361.242C533.648 360.582 533.898 360.07 534.398 359.707C534.902 359.34 535.609 359.156 536.52 359.156H537.574V358.658C537.574 358.279 537.461 357.979 537.234 357.756C537.008 357.529 536.674 357.416 536.232 357.416C535.846 357.416 535.521 357.514 535.26 357.709C534.998 357.904 534.867 358.141 534.867 358.418H533.777C533.777 358.102 533.889 357.797 534.111 357.504C534.338 357.207 534.643 356.973 535.025 356.801C535.412 356.629 535.836 356.543 536.297 356.543C537.027 356.543 537.6 356.727 538.014 357.094C538.428 357.457 538.643 357.959 538.658 358.6V361.518C538.658 362.1 538.732 362.562 538.881 362.906V363H537.744ZM535.945 362.174C536.285 362.174 536.607 362.086 536.912 361.91C537.217 361.734 537.438 361.506 537.574 361.225V359.924H536.725C535.396 359.924 534.732 360.312 534.732 361.09C534.732 361.43 534.846 361.695 535.072 361.887C535.299 362.078 535.59 362.174 535.945 362.174ZM541.383 356.66L541.418 357.457C541.902 356.848 542.535 356.543 543.316 356.543C544.656 356.543 545.332 357.299 545.344 358.811V363H544.26V358.805C544.256 358.348 544.15 358.01 543.943 357.791C543.74 357.572 543.422 357.463 542.988 357.463C542.637 357.463 542.328 357.557 542.062 357.744C541.797 357.932 541.59 358.178 541.441 358.482V363H540.357V356.66H541.383ZM555.434 363H549.844V362.221L552.797 358.939C553.234 358.443 553.535 358.041 553.699 357.732C553.867 357.42 553.951 357.098 553.951 356.766C553.951 356.32 553.816 355.955 553.547 355.67C553.277 355.385 552.918 355.242 552.469 355.242C551.93 355.242 551.51 355.396 551.209 355.705C550.912 356.01 550.764 356.436 550.764 356.982H549.68C549.68 356.197 549.932 355.562 550.436 355.078C550.943 354.594 551.621 354.352 552.469 354.352C553.262 354.352 553.889 354.561 554.35 354.979C554.811 355.393 555.041 355.945 555.041 356.637C555.041 357.477 554.506 358.477 553.436 359.637L551.15 362.115H555.434V363ZM562.172 363H556.582V362.221L559.535 358.939C559.973 358.443 560.273 358.041 560.438 357.732C560.605 357.42 560.689 357.098 560.689 356.766C560.689 356.32 560.555 355.955 560.285 355.67C560.016 355.385 559.656 355.242 559.207 355.242C558.668 355.242 558.248 355.396 557.947 355.705C557.65 356.01 557.502 356.436 557.502 356.982H556.418C556.418 356.197 556.67 355.562 557.174 355.078C557.682 354.594 558.359 354.352 559.207 354.352C560 354.352 560.627 354.561 561.088 354.979C561.549 355.393 561.779 355.945 561.779 356.637C561.779 357.477 561.244 358.477 560.174 359.637L557.889 362.115H562.172V363Z" fill="#92929D"/>
<path fill-rule="evenodd" clip-rule="evenodd" d="M544 342V64H544.999V342H544Z" fill="#F1F1F5"/>
<path d="M471.953 354.469H473.084V360.51C473.084 361.326 472.838 361.965 472.346 362.426C471.857 362.887 471.205 363.117 470.389 363.117C469.541 363.117 468.881 362.9 468.408 362.467C467.936 362.033 467.699 361.426 467.699 360.645H468.824C468.824 361.133 468.957 361.514 469.223 361.787C469.492 362.061 469.881 362.197 470.389 362.197C470.854 362.197 471.229 362.051 471.514 361.758C471.803 361.465 471.949 361.055 471.953 360.527V354.469ZM478.744 363C478.682 362.875 478.631 362.652 478.592 362.332C478.088 362.855 477.486 363.117 476.787 363.117C476.162 363.117 475.648 362.941 475.246 362.59C474.848 362.234 474.648 361.785 474.648 361.242C474.648 360.582 474.898 360.07 475.398 359.707C475.902 359.34 476.609 359.156 477.52 359.156H478.574V358.658C478.574 358.279 478.461 357.979 478.234 357.756C478.008 357.529 477.674 357.416 477.232 357.416C476.846 357.416 476.521 357.514 476.26 357.709C475.998 357.904 475.867 358.141 475.867 358.418H474.777C474.777 358.102 474.889 357.797 475.111 357.504C475.338 357.207 475.643 356.973 476.025 356.801C476.412 356.629 476.836 356.543 477.297 356.543C478.027 356.543 478.6 356.727 479.014 357.094C479.428 357.457 479.643 357.959 479.658 358.6V361.518C479.658 362.1 479.732 362.562 479.881 362.906V363H478.744ZM476.945 362.174C477.285 362.174 477.607 362.086 477.912 361.91C478.217 361.734 478.438 361.506 478.574 361.225V359.924H477.725C476.396 359.924 475.732 360.312 475.732 361.09C475.732 361.43 475.846 361.695 476.072 361.887C476.299 362.078 476.59 362.174 476.945 362.174ZM482.383 356.66L482.418 357.457C482.902 356.848 483.535 356.543 484.316 356.543C485.656 356.543 486.332 357.299 486.344 358.811V363H485.26V358.805C485.256 358.348 485.15 358.01 484.943 357.791C484.74 357.572 484.422 357.463 483.988 357.463C483.637 357.463 483.328 357.557 483.062 357.744C482.797 357.932 482.59 358.178 482.441 358.482V363H481.357V356.66H482.383ZM496.434 363H490.844V362.221L493.797 358.939C494.234 358.443 494.535 358.041 494.699 357.732C494.867 357.42 494.951 357.098 494.951 356.766C494.951 356.32 494.816 355.955 494.547 355.67C494.277 355.385 493.918 355.242 493.469 355.242C492.93 355.242 492.51 355.396 492.209 355.705C491.912 356.01 491.764 356.436 491.764 356.982H490.68C490.68 356.197 490.932 355.562 491.436 355.078C491.943 354.594 492.621 354.352 493.469 354.352C494.262 354.352 494.889 354.561 495.35 354.979C495.811 355.393 496.041 355.945 496.041 356.637C496.041 357.477 495.506 358.477 494.436 359.637L492.15 362.115H496.434V363ZM501.145 363H500.055V355.775L497.869 356.578V355.594L500.975 354.428H501.145V363Z" fill="#92929D"/>
<path fill-rule="evenodd" clip-rule="evenodd" d="M485 342V64H485.999V342H485Z" fill="#F1F1F5"/>
<path d="M412.953 354.469H414.084V360.51C414.084 361.326 413.838 361.965 413.346 362.426C412.857 362.887 412.205 363.117 411.389 363.117C410.541 363.117 409.881 362.9 409.408 362.467C408.936 362.033 408.699 361.426 408.699 360.645H409.824C409.824 361.133 409.957 361.514 410.223 361.787C410.492 362.061 410.881 362.197 411.389 362.197C411.854 362.197 412.229 362.051 412.514 361.758C412.803 361.465 412.949 361.055 412.953 360.527V354.469ZM419.744 363C419.682 362.875 419.631 362.652 419.592 362.332C419.088 362.855 418.486 363.117 417.787 363.117C417.162 363.117 416.648 362.941 416.246 362.59C415.848 362.234 415.648 361.785 415.648 361.242C415.648 360.582 415.898 360.07 416.398 359.707C416.902 359.34 417.609 359.156 418.52 359.156H419.574V358.658C419.574 358.279 419.461 357.979 419.234 357.756C419.008 357.529 418.674 357.416 418.232 357.416C417.846 357.416 417.521 357.514 417.26 357.709C416.998 357.904 416.867 358.141 416.867 358.418H415.777C415.777 358.102 415.889 357.797 416.111 357.504C416.338 357.207 416.643 356.973 417.025 356.801C417.412 356.629 417.836 356.543 418.297 356.543C419.027 356.543 419.6 356.727 420.014 357.094C420.428 357.457 420.643 357.959 420.658 358.6V361.518C420.658 362.1 420.732 362.562 420.881 362.906V363H419.744ZM417.945 362.174C418.285 362.174 418.607 362.086 418.912 361.91C419.217 361.734 419.438 361.506 419.574 361.225V359.924H418.725C417.396 359.924 416.732 360.312 416.732 361.09C416.732 361.43 416.846 361.695 417.072 361.887C417.299 362.078 417.59 362.174 417.945 362.174ZM423.383 356.66L423.418 357.457C423.902 356.848 424.535 356.543 425.316 356.543C426.656 356.543 427.332 357.299 427.344 358.811V363H426.26V358.805C426.256 358.348 426.15 358.01 425.943 357.791C425.74 357.572 425.422 357.463 424.988 357.463C424.637 357.463 424.328 357.557 424.062 357.744C423.797 357.932 423.59 358.178 423.441 358.482V363H422.357V356.66H423.383ZM437.434 363H431.844V362.221L434.797 358.939C435.234 358.443 435.535 358.041 435.699 357.732C435.867 357.42 435.951 357.098 435.951 356.766C435.951 356.32 435.816 355.955 435.547 355.67C435.277 355.385 434.918 355.242 434.469 355.242C433.93 355.242 433.51 355.396 433.209 355.705C432.912 356.01 432.764 356.436 432.764 356.982H431.68C431.68 356.197 431.932 355.562 432.436 355.078C432.943 354.594 433.621 354.352 434.469 354.352C435.262 354.352 435.889 354.561 436.35 354.979C436.811 355.393 437.041 355.945 437.041 356.637C437.041 357.477 436.506 358.477 435.436 359.637L433.15 362.115H437.434V363ZM443.932 359.361C443.932 360.631 443.715 361.574 443.281 362.191C442.848 362.809 442.17 363.117 441.248 363.117C440.338 363.117 439.664 362.816 439.227 362.215C438.789 361.609 438.562 360.707 438.547 359.508V358.061C438.547 356.807 438.764 355.875 439.197 355.266C439.631 354.656 440.311 354.352 441.236 354.352C442.154 354.352 442.83 354.646 443.264 355.236C443.697 355.822 443.92 356.729 443.932 357.955V359.361ZM442.848 357.879C442.848 356.961 442.719 356.293 442.461 355.875C442.203 355.453 441.795 355.242 441.236 355.242C440.682 355.242 440.277 355.451 440.023 355.869C439.77 356.287 439.639 356.93 439.631 357.797V359.531C439.631 360.453 439.764 361.135 440.029 361.576C440.299 362.014 440.705 362.232 441.248 362.232C441.783 362.232 442.18 362.025 442.438 361.611C442.699 361.197 442.836 360.545 442.848 359.654V357.879Z" fill="#92929D"/>
<path fill-rule="evenodd" clip-rule="evenodd" d="M426 342V64H426.999V342H426Z" fill="#F1F1F5"/>
<path d="M353.953 354.469H355.084V360.51C355.084 361.326 354.838 361.965 354.346 362.426C353.857 362.887 353.205 363.117 352.389 363.117C351.541 363.117 350.881 362.9 350.408 362.467C349.936 362.033 349.699 361.426 349.699 360.645H350.824C350.824 361.133 350.957 361.514 351.223 361.787C351.492 362.061 351.881 362.197 352.389 362.197C352.854 362.197 353.229 362.051 353.514 361.758C353.803 361.465 353.949 361.055 353.953 360.527V354.469ZM360.744 363C360.682 362.875 360.631 362.652 360.592 362.332C360.088 362.855 359.486 363.117 358.787 363.117C358.162 363.117 357.648 362.941 357.246 362.59C356.848 362.234 356.648 361.785 356.648 361.242C356.648 360.582 356.898 360.07 357.398 359.707C357.902 359.34 358.609 359.156 359.52 359.156H360.574V358.658C360.574 358.279 360.461 357.979 360.234 357.756C360.008 357.529 359.674 357.416 359.232 357.416C358.846 357.416 358.521 357.514 358.26 357.709C357.998 357.904 357.867 358.141 357.867 358.418H356.777C356.777 358.102 356.889 357.797 357.111 357.504C357.338 357.207 357.643 356.973 358.025 356.801C358.412 356.629 358.836 356.543 359.297 356.543C360.027 356.543 360.6 356.727 361.014 357.094C361.428 357.457 361.643 357.959 361.658 358.6V361.518C361.658 362.1 361.732 362.562 361.881 362.906V363H360.744ZM358.945 362.174C359.285 362.174 359.607 362.086 359.912 361.91C360.217 361.734 360.438 361.506 360.574 361.225V359.924H359.725C358.396 359.924 357.732 360.312 357.732 361.09C357.732 361.43 357.846 361.695 358.072 361.887C358.299 362.078 358.59 362.174 358.945 362.174ZM364.383 356.66L364.418 357.457C364.902 356.848 365.535 356.543 366.316 356.543C367.656 356.543 368.332 357.299 368.344 358.811V363H367.26V358.805C367.256 358.348 367.15 358.01 366.943 357.791C366.74 357.572 366.422 357.463 365.988 357.463C365.637 357.463 365.328 357.557 365.062 357.744C364.797 357.932 364.59 358.178 364.441 358.482V363H363.357V356.66H364.383ZM376.406 363H375.316V355.775L373.131 356.578V355.594L376.236 354.428H376.406V363ZM383.736 359.25C383.51 359.52 383.238 359.736 382.922 359.9C382.609 360.064 382.266 360.146 381.891 360.146C381.398 360.146 380.969 360.025 380.602 359.783C380.238 359.541 379.957 359.201 379.758 358.764C379.559 358.322 379.459 357.836 379.459 357.305C379.459 356.734 379.566 356.221 379.781 355.764C380 355.307 380.309 354.957 380.707 354.715C381.105 354.473 381.57 354.352 382.102 354.352C382.945 354.352 383.609 354.668 384.094 355.301C384.582 355.93 384.826 356.789 384.826 357.879V358.195C384.826 359.855 384.498 361.068 383.842 361.834C383.186 362.596 382.195 362.986 380.871 363.006H380.66V362.092H380.889C381.783 362.076 382.471 361.844 382.951 361.395C383.432 360.941 383.693 360.227 383.736 359.25ZM382.066 359.25C382.43 359.25 382.764 359.139 383.068 358.916C383.377 358.693 383.602 358.418 383.742 358.09V357.656C383.742 356.945 383.588 356.367 383.279 355.922C382.971 355.477 382.58 355.254 382.107 355.254C381.631 355.254 381.248 355.438 380.959 355.805C380.67 356.168 380.525 356.648 380.525 357.246C380.525 357.828 380.664 358.309 380.941 358.688C381.223 359.062 381.598 359.25 382.066 359.25Z" fill="#92929D"/>
<path fill-rule="evenodd" clip-rule="evenodd" d="M367 342V64H367.999V342H367Z" fill="#F1F1F5"/>
<path d="M294.953 354.469H296.084V360.51C296.084 361.326 295.838 361.965 295.346 362.426C294.857 362.887 294.205 363.117 293.389 363.117C292.541 363.117 291.881 362.9 291.408 362.467C290.936 362.033 290.699 361.426 290.699 360.645H291.824C291.824 361.133 291.957 361.514 292.223 361.787C292.492 362.061 292.881 362.197 293.389 362.197C293.854 362.197 294.229 362.051 294.514 361.758C294.803 361.465 294.949 361.055 294.953 360.527V354.469ZM301.744 363C301.682 362.875 301.631 362.652 301.592 362.332C301.088 362.855 300.486 363.117 299.787 363.117C299.162 363.117 298.648 362.941 298.246 362.59C297.848 362.234 297.648 361.785 297.648 361.242C297.648 360.582 297.898 360.07 298.398 359.707C298.902 359.34 299.609 359.156 300.52 359.156H301.574V358.658C301.574 358.279 301.461 357.979 301.234 357.756C301.008 357.529 300.674 357.416 300.232 357.416C299.846 357.416 299.521 357.514 299.26 357.709C298.998 357.904 298.867 358.141 298.867 358.418H297.777C297.777 358.102 297.889 357.797 298.111 357.504C298.338 357.207 298.643 356.973 299.025 356.801C299.412 356.629 299.836 356.543 300.297 356.543C301.027 356.543 301.6 356.727 302.014 357.094C302.428 357.457 302.643 357.959 302.658 358.6V361.518C302.658 362.1 302.732 362.562 302.881 362.906V363H301.744ZM299.945 362.174C300.285 362.174 300.607 362.086 300.912 361.91C301.217 361.734 301.438 361.506 301.574 361.225V359.924H300.725C299.396 359.924 298.732 360.312 298.732 361.09C298.732 361.43 298.846 361.695 299.072 361.887C299.299 362.078 299.59 362.174 299.945 362.174ZM305.383 356.66L305.418 357.457C305.902 356.848 306.535 356.543 307.316 356.543C308.656 356.543 309.332 357.299 309.344 358.811V363H308.26V358.805C308.256 358.348 308.15 358.01 307.943 357.791C307.74 357.572 307.422 357.463 306.988 357.463C306.637 357.463 306.328 357.557 306.062 357.744C305.797 357.932 305.59 358.178 305.441 358.482V363H304.357V356.66H305.383ZM317.406 363H316.316V355.775L314.131 356.578V355.594L317.236 354.428H317.406V363ZM325.756 356.695C325.756 357.121 325.643 357.5 325.416 357.832C325.193 358.164 324.891 358.424 324.508 358.611C324.953 358.803 325.305 359.082 325.562 359.449C325.824 359.816 325.955 360.232 325.955 360.697C325.955 361.436 325.705 362.023 325.205 362.461C324.709 362.898 324.055 363.117 323.242 363.117C322.422 363.117 321.764 362.898 321.268 362.461C320.775 362.02 320.529 361.432 320.529 360.697C320.529 360.236 320.654 359.82 320.904 359.449C321.158 359.078 321.508 358.797 321.953 358.605C321.574 358.418 321.275 358.158 321.057 357.826C320.838 357.494 320.729 357.117 320.729 356.695C320.729 355.977 320.959 355.406 321.42 354.984C321.881 354.562 322.488 354.352 323.242 354.352C323.992 354.352 324.598 354.562 325.059 354.984C325.523 355.406 325.756 355.977 325.756 356.695ZM324.871 360.674C324.871 360.197 324.719 359.809 324.414 359.508C324.113 359.207 323.719 359.057 323.23 359.057C322.742 359.057 322.35 359.205 322.053 359.502C321.76 359.799 321.613 360.189 321.613 360.674C321.613 361.158 321.756 361.539 322.041 361.816C322.33 362.094 322.73 362.232 323.242 362.232C323.75 362.232 324.148 362.094 324.438 361.816C324.727 361.535 324.871 361.154 324.871 360.674ZM323.242 355.242C322.816 355.242 322.471 355.375 322.205 355.641C321.943 355.902 321.812 356.26 321.812 356.713C321.812 357.146 321.941 357.498 322.199 357.768C322.461 358.033 322.809 358.166 323.242 358.166C323.676 358.166 324.021 358.033 324.279 357.768C324.541 357.498 324.672 357.146 324.672 356.713C324.672 356.279 324.537 355.926 324.268 355.652C323.998 355.379 323.656 355.242 323.242 355.242Z" fill="#92929D"/>
<path fill-rule="evenodd" clip-rule="evenodd" d="M308.011 342V64H308.987V342H308.011Z" fill="#F1F1F5"/>
<path d="M235.953 354.469H237.084V360.51C237.084 361.326 236.838 361.965 236.346 362.426C235.857 362.887 235.205 363.117 234.389 363.117C233.541 363.117 232.881 362.9 232.408 362.467C231.936 362.033 231.699 361.426 231.699 360.645H232.824C232.824 361.133 232.957 361.514 233.223 361.787C233.492 362.061 233.881 362.197 234.389 362.197C234.854 362.197 235.229 362.051 235.514 361.758C235.803 361.465 235.949 361.055 235.953 360.527V354.469ZM242.744 363C242.682 362.875 242.631 362.652 242.592 362.332C242.088 362.855 241.486 363.117 240.787 363.117C240.162 363.117 239.648 362.941 239.246 362.59C238.848 362.234 238.648 361.785 238.648 361.242C238.648 360.582 238.898 360.07 239.398 359.707C239.902 359.34 240.609 359.156 241.52 359.156H242.574V358.658C242.574 358.279 242.461 357.979 242.234 357.756C242.008 357.529 241.674 357.416 241.232 357.416C240.846 357.416 240.521 357.514 240.26 357.709C239.998 357.904 239.867 358.141 239.867 358.418H238.777C238.777 358.102 238.889 357.797 239.111 357.504C239.338 357.207 239.643 356.973 240.025 356.801C240.412 356.629 240.836 356.543 241.297 356.543C242.027 356.543 242.6 356.727 243.014 357.094C243.428 357.457 243.643 357.959 243.658 358.6V361.518C243.658 362.1 243.732 362.562 243.881 362.906V363H242.744ZM240.945 362.174C241.285 362.174 241.607 362.086 241.912 361.91C242.217 361.734 242.438 361.506 242.574 361.225V359.924H241.725C240.396 359.924 239.732 360.312 239.732 361.09C239.732 361.43 239.846 361.695 240.072 361.887C240.299 362.078 240.59 362.174 240.945 362.174ZM246.383 356.66L246.418 357.457C246.902 356.848 247.535 356.543 248.316 356.543C249.656 356.543 250.332 357.299 250.344 358.811V363H249.26V358.805C249.256 358.348 249.15 358.01 248.943 357.791C248.74 357.572 248.422 357.463 247.988 357.463C247.637 357.463 247.328 357.557 247.062 357.744C246.797 357.932 246.59 358.178 246.441 358.482V363H245.357V356.66H246.383ZM258.406 363H257.316V355.775L255.131 356.578V355.594L258.236 354.428H258.406V363ZM267.09 355.078L263.557 363H262.42L265.941 355.359H261.324V354.469H267.09V355.078Z" fill="#92929D"/>
<path fill-rule="evenodd" clip-rule="evenodd" d="M249.011 342V64H249.987V342H249.011Z" fill="#F1F1F5"/>
<path d="M176.953 354.469H178.084V360.51C178.084 361.326 177.838 361.965 177.346 362.426C176.857 362.887 176.205 363.117 175.389 363.117C174.541 363.117 173.881 362.9 173.408 362.467C172.936 362.033 172.699 361.426 172.699 360.645H173.824C173.824 361.133 173.957 361.514 174.223 361.787C174.492 362.061 174.881 362.197 175.389 362.197C175.854 362.197 176.229 362.051 176.514 361.758C176.803 361.465 176.949 361.055 176.953 360.527V354.469ZM183.744 363C183.682 362.875 183.631 362.652 183.592 362.332C183.088 362.855 182.486 363.117 181.787 363.117C181.162 363.117 180.648 362.941 180.246 362.59C179.848 362.234 179.648 361.785 179.648 361.242C179.648 360.582 179.898 360.07 180.398 359.707C180.902 359.34 181.609 359.156 182.52 359.156H183.574V358.658C183.574 358.279 183.461 357.979 183.234 357.756C183.008 357.529 182.674 357.416 182.232 357.416C181.846 357.416 181.521 357.514 181.26 357.709C180.998 357.904 180.867 358.141 180.867 358.418H179.777C179.777 358.102 179.889 357.797 180.111 357.504C180.338 357.207 180.643 356.973 181.025 356.801C181.412 356.629 181.836 356.543 182.297 356.543C183.027 356.543 183.6 356.727 184.014 357.094C184.428 357.457 184.643 357.959 184.658 358.6V361.518C184.658 362.1 184.732 362.562 184.881 362.906V363H183.744ZM181.945 362.174C182.285 362.174 182.607 362.086 182.912 361.91C183.217 361.734 183.438 361.506 183.574 361.225V359.924H182.725C181.396 359.924 180.732 360.312 180.732 361.09C180.732 361.43 180.846 361.695 181.072 361.887C181.299 362.078 181.59 362.174 181.945 362.174ZM187.383 356.66L187.418 357.457C187.902 356.848 188.535 356.543 189.316 356.543C190.656 356.543 191.332 357.299 191.344 358.811V363H190.26V358.805C190.256 358.348 190.15 358.01 189.943 357.791C189.74 357.572 189.422 357.463 188.988 357.463C188.637 357.463 188.328 357.557 188.062 357.744C187.797 357.932 187.59 358.178 187.441 358.482V363H186.357V356.66H187.383ZM199.406 363H198.316V355.775L196.131 356.578V355.594L199.236 354.428H199.406V363ZM206.836 354.463V355.383H206.637C205.793 355.398 205.121 355.648 204.621 356.133C204.121 356.617 203.832 357.299 203.754 358.178C204.203 357.662 204.816 357.404 205.594 357.404C206.336 357.404 206.928 357.666 207.369 358.189C207.814 358.713 208.037 359.389 208.037 360.217C208.037 361.096 207.797 361.799 207.316 362.326C206.84 362.854 206.199 363.117 205.395 363.117C204.578 363.117 203.916 362.805 203.408 362.18C202.9 361.551 202.646 360.742 202.646 359.754V359.338C202.646 357.768 202.98 356.568 203.648 355.74C204.32 354.908 205.318 354.482 206.643 354.463H206.836ZM205.412 358.307C205.041 358.307 204.699 358.418 204.387 358.641C204.074 358.863 203.857 359.143 203.736 359.479V359.877C203.736 360.58 203.895 361.146 204.211 361.576C204.527 362.006 204.922 362.221 205.395 362.221C205.883 362.221 206.266 362.041 206.543 361.682C206.824 361.322 206.965 360.852 206.965 360.27C206.965 359.684 206.822 359.211 206.537 358.852C206.256 358.488 205.881 358.307 205.412 358.307Z" fill="#92929D"/>
<path fill-rule="evenodd" clip-rule="evenodd" d="M190.011 342V64H190.987V342H190.011Z" fill="#F1F1F5"/>
<path d="M117.953 354.469H119.084V360.51C119.084 361.326 118.838 361.965 118.346 362.426C117.857 362.887 117.205 363.117 116.389 363.117C115.541 363.117 114.881 362.9 114.408 362.467C113.936 362.033 113.699 361.426 113.699 360.645H114.824C114.824 361.133 114.957 361.514 115.223 361.787C115.492 362.061 115.881 362.197 116.389 362.197C116.854 362.197 117.229 362.051 117.514 361.758C117.803 361.465 117.949 361.055 117.953 360.527V354.469ZM124.744 363C124.682 362.875 124.631 362.652 124.592 362.332C124.088 362.855 123.486 363.117 122.787 363.117C122.162 363.117 121.648 362.941 121.246 362.59C120.848 362.234 120.648 361.785 120.648 361.242C120.648 360.582 120.898 360.07 121.398 359.707C121.902 359.34 122.609 359.156 123.52 359.156H124.574V358.658C124.574 358.279 124.461 357.979 124.234 357.756C124.008 357.529 123.674 357.416 123.232 357.416C122.846 357.416 122.521 357.514 122.26 357.709C121.998 357.904 121.867 358.141 121.867 358.418H120.777C120.777 358.102 120.889 357.797 121.111 357.504C121.338 357.207 121.643 356.973 122.025 356.801C122.412 356.629 122.836 356.543 123.297 356.543C124.027 356.543 124.6 356.727 125.014 357.094C125.428 357.457 125.643 357.959 125.658 358.6V361.518C125.658 362.1 125.732 362.562 125.881 362.906V363H124.744ZM122.945 362.174C123.285 362.174 123.607 362.086 123.912 361.91C124.217 361.734 124.438 361.506 124.574 361.225V359.924H123.725C122.396 359.924 121.732 360.312 121.732 361.09C121.732 361.43 121.846 361.695 122.072 361.887C122.299 362.078 122.59 362.174 122.945 362.174ZM128.383 356.66L128.418 357.457C128.902 356.848 129.535 356.543 130.316 356.543C131.656 356.543 132.332 357.299 132.344 358.811V363H131.26V358.805C131.256 358.348 131.15 358.01 130.943 357.791C130.74 357.572 130.422 357.463 129.988 357.463C129.637 357.463 129.328 357.557 129.062 357.744C128.797 357.932 128.59 358.178 128.441 358.482V363H127.357V356.66H128.383ZM140.406 363H139.316V355.775L137.131 356.578V355.594L140.236 354.428H140.406V363ZM144.08 358.723L144.514 354.469H148.885V355.471H145.434L145.176 357.797C145.594 357.551 146.068 357.428 146.6 357.428C147.377 357.428 147.994 357.686 148.451 358.201C148.908 358.713 149.137 359.406 149.137 360.281C149.137 361.16 148.898 361.854 148.422 362.361C147.949 362.865 147.287 363.117 146.436 363.117C145.682 363.117 145.066 362.908 144.59 362.49C144.113 362.072 143.842 361.494 143.775 360.756H144.801C144.867 361.244 145.041 361.613 145.322 361.863C145.604 362.109 145.975 362.232 146.436 362.232C146.939 362.232 147.334 362.061 147.619 361.717C147.908 361.373 148.053 360.898 148.053 360.293C148.053 359.723 147.896 359.266 147.584 358.922C147.275 358.574 146.863 358.4 146.348 358.4C145.875 358.4 145.504 358.504 145.234 358.711L144.947 358.945L144.08 358.723Z" fill="#92929D"/>
<path fill-rule="evenodd" clip-rule="evenodd" d="M131.011 342V64H131.987V342H131.011Z" fill="#F1F1F5"/>
<path d="M58.9531 354.469H60.084V360.51C60.084 361.326 59.8379 361.965 59.3457 362.426C58.8574 362.887 58.2051 363.117 57.3887 363.117C56.541 363.117 55.8809 362.9 55.4082 362.467C54.9355 362.033 54.6992 361.426 54.6992 360.645H55.8242C55.8242 361.133 55.957 361.514 56.2227 361.787C56.4922 362.061 56.8809 362.197 57.3887 362.197C57.8535 362.197 58.2285 362.051 58.5137 361.758C58.8027 361.465 58.9492 361.055 58.9531 360.527V354.469ZM65.7441 363C65.6816 362.875 65.6309 362.652 65.5918 362.332C65.0879 362.855 64.4863 363.117 63.7871 363.117C63.1621 363.117 62.6484 362.941 62.2461 362.59C61.8477 362.234 61.6484 361.785 61.6484 361.242C61.6484 360.582 61.8984 360.07 62.3984 359.707C62.9023 359.34 63.6094 359.156 64.5195 359.156H65.5742V358.658C65.5742 358.279 65.4609 357.979 65.2344 357.756C65.0078 357.529 64.6738 357.416 64.2324 357.416C63.8457 357.416 63.5215 357.514 63.2598 357.709C62.998 357.904 62.8672 358.141 62.8672 358.418H61.7773C61.7773 358.102 61.8887 357.797 62.1113 357.504C62.3379 357.207 62.6426 356.973 63.0254 356.801C63.4121 356.629 63.8359 356.543 64.2969 356.543C65.0273 356.543 65.5996 356.727 66.0137 357.094C66.4277 357.457 66.6426 357.959 66.6582 358.6V361.518C66.6582 362.1 66.7324 362.562 66.8809 362.906V363H65.7441ZM63.9453 362.174C64.2852 362.174 64.6074 362.086 64.9121 361.91C65.2168 361.734 65.4375 361.506 65.5742 361.225V359.924H64.7246C63.3965 359.924 62.7324 360.312 62.7324 361.09C62.7324 361.43 62.8457 361.695 63.0723 361.887C63.2988 362.078 63.5898 362.174 63.9453 362.174ZM69.3828 356.66L69.418 357.457C69.9023 356.848 70.5352 356.543 71.3164 356.543C72.6562 356.543 73.332 357.299 73.3438 358.811V363H72.2598V358.805C72.2559 358.348 72.1504 358.01 71.9434 357.791C71.7402 357.572 71.4219 357.463 70.9883 357.463C70.6367 357.463 70.3281 357.557 70.0625 357.744C69.7969 357.932 69.5898 358.178 69.4414 358.482V363H68.3574V356.66H69.3828ZM81.4062 363H80.3164V355.775L78.1309 356.578V355.594L81.2363 354.428H81.4062V363ZM89.1582 360.135H90.3418V361.02H89.1582V363H88.0684V361.02H84.1836V360.381L88.0039 354.469H89.1582V360.135ZM85.4141 360.135H88.0684V355.951L87.9395 356.186L85.4141 360.135Z" fill="#92929D"/>
<path fill-rule="evenodd" clip-rule="evenodd" d="M72.0113 342V64H72.9873V342H72.0113Z" fill="#F1F1F5"/>
<path d="M33.85 23.88V31H32.21L32.2 27.74L30.85 31H29.66L28.3 27.78V31H26.67V23.88H28.14L30.27 28.74L32.39 23.88H33.85ZM35.6556 23.88H37.5356V31H35.6556V23.88ZM45.6897 23.88V31H44.2997L41.0697 26.96V31H39.3197V23.88H40.6897L43.9197 27.9V23.88H45.6897ZM47.4759 23.88H49.3559V31H47.4759V23.88ZM57.51 23.88V31H56.12L52.89 26.96V31H51.14V23.88H52.51L55.74 27.9V23.88H57.51ZM65.6163 26.98V30.55C65.2363 30.7233 64.8096 30.8567 64.3363 30.95C63.8696 31.0433 63.3896 31.09 62.8963 31.09C62.1229 31.09 61.4496 30.9433 60.8763 30.65C60.3096 30.3567 59.8729 29.9367 59.5663 29.39C59.2596 28.8367 59.1063 28.1833 59.1063 27.43C59.1063 26.6967 59.2596 26.0567 59.5663 25.51C59.8729 24.9567 60.3063 24.5333 60.8663 24.24C61.4263 23.94 62.0796 23.79 62.8263 23.79C63.3396 23.79 63.8229 23.8567 64.2763 23.99C64.7363 24.1233 65.1096 24.3067 65.3963 24.54L64.8063 25.87C64.4796 25.6567 64.1629 25.5033 63.8563 25.41C63.5563 25.31 63.2329 25.26 62.8863 25.26C62.2529 25.26 61.7796 25.44 61.4663 25.8C61.1596 26.1533 61.0063 26.6967 61.0063 27.43C61.0063 28.19 61.1663 28.7533 61.4863 29.12C61.8129 29.4867 62.3129 29.67 62.9863 29.67C63.2996 29.67 63.6129 29.6367 63.9263 29.57V28.25H62.6863V26.98H65.6163ZM76.8964 31H74.9064L73.9864 28.63C73.8797 28.3633 73.6297 28.23 73.2364 28.23H72.5564V31H70.7064V23.88H74.0164C74.8764 23.88 75.5231 24.0667 75.9564 24.44C76.3897 24.8067 76.6064 25.3333 76.6064 26.02C76.6064 26.5 76.4764 26.9167 76.2164 27.27C75.9631 27.6167 75.6031 27.8633 75.1364 28.01C75.3364 28.05 75.5164 28.1433 75.6764 28.29C75.8364 28.4367 75.9631 28.6333 76.0564 28.88L76.8964 31ZM73.7164 26.83C74.1164 26.83 74.4064 26.77 74.5864 26.65C74.7664 26.5233 74.8564 26.33 74.8564 26.07C74.8564 25.7967 74.7664 25.6 74.5864 25.48C74.4131 25.36 74.1231 25.3 73.7164 25.3H72.5364V26.83H73.7164ZM78.3451 23.88H83.4251V25.32H80.1751V26.66H83.2151V28.1H80.1751V29.56H83.4251V31H78.3451V23.88ZM92.0681 23.88L88.8281 31H87.3381L84.0981 23.88H86.0481L88.0981 28.66L90.1781 23.88H92.0681ZM92.9779 23.88H98.0579V25.32H94.8079V26.66H97.8479V28.1H94.8079V29.56H98.0579V31H92.9779V23.88ZM105.883 23.88V31H104.493L101.263 26.96V31H99.513V23.88H100.883L104.113 27.9V23.88H105.883ZM110.799 31.09C109.759 31.09 108.973 30.83 108.439 30.31C107.906 29.7833 107.639 29.0133 107.639 28V23.88H109.469V28.07C109.469 28.5833 109.583 28.9767 109.809 29.25C110.043 29.5233 110.373 29.66 110.799 29.66C111.219 29.66 111.543 29.5233 111.769 29.25C111.996 28.97 112.109 28.5767 112.109 28.07V23.88H113.959V28C113.959 29 113.686 29.7667 113.139 30.3C112.599 30.8267 111.819 31.09 110.799 31.09ZM115.689 23.88H120.769V25.32H117.519V26.66H120.559V28.1H117.519V29.56H120.769V31H115.689V23.88Z" fill="black"/>
<path d="M73.9048 191.814C75.7663 192.494 83.667 190.973 93.3327 191.836C100.943 192.515 107.564 194.696 117.308 195.356C135.801 196.607 150.894 197.892 159.47 200.88C168.046 203.868 180.919 214 196.259 214C211.599 214 219.407 208.73 225.194 205.259C230.737 201.934 241.414 193.948 258.676 193.067C277.73 192.095 293.399 186.169 316.133 185.172C328.251 184.641 337.958 185.675 348.789 187.281C359.62 188.886 357.499 189.58 381.858 190.817C401.959 191.839 407.217 195.356 426.914 195.779C446.611 196.202 455.721 182.96 476.517 184.066C497.313 185.171 501.468 182.313 521.016 187.729C540.564 193.146 558.625 188.824 583.164 187.718C607.703 186.613 614.094 190.042 625.74 189.6C637.385 189.158 647.871 197.518 657.853 198.733C667.835 199.949 670.665 195.532 691.877 195.532C713.089 195.532 710.82 191.149 722.466 190.817C734.112 190.486 742.284 191.045 746.027 189.608" stroke="url(#paint0_linear)" stroke-width="2.48592" stroke-linecap="round" stroke-linejoin="round"/>
<path fill-rule="evenodd" clip-rule="evenodd" d="M484.992 342V184H485.991V342H484.992Z" fill="#FFC60D"/>
<g filter="url(#filter0_d)">
<rect x="479" y="179" width="12.9831" height="13" rx="6.49153" fill="#FFC60D"/>
<rect x="479.75" y="179.75" width="11.4831" height="11.5" rx="5.74153" stroke="white" stroke-width="1.5"/>
</g>
<g filter="url(#filter1_d)">
<path fill-rule="evenodd" clip-rule="evenodd" d="M488.238 172.458C486.675 174.514 484.142 174.514 482.579 172.458L480.025 169.567C479.239 168.677 478.108 168.167 476.92 168.167H453.718C448.252 168.167 446.27 167.587 444.272 166.497C442.274 165.408 440.706 163.809 439.638 161.772C438.569 159.735 438 157.714 438 152.142V130.024C438 124.452 438.569 122.432 439.638 120.395C440.706 118.358 442.274 116.759 444.272 115.67C446.27 114.58 448.252 114 453.718 114H516.282C521.748 114 523.73 114.58 525.728 115.67C527.726 116.759 529.294 118.358 530.362 120.395C531.431 122.432 532 124.452 532 130.024V152.142C532 157.714 531.431 159.735 530.362 161.772C529.294 163.809 527.726 165.408 525.728 166.497C523.73 167.587 521.748 168.167 516.282 168.167H495.765C493.39 168.167 491.128 169.186 489.555 170.967L488.238 172.458Z" fill="white"/>
</g>
<path fill-rule="evenodd" clip-rule="evenodd" d="M515.506 136C515.081 136 514.846 135.477 515.113 135.126L518.107 131.199C518.309 130.934 518.691 130.934 518.893 131.199L521.887 135.126C522.154 135.477 521.919 136 521.494 136L515.506 136Z" fill="#29CB97"/>
<path d="M451.6 138.108C450.584 138.108 449.808 137.736 449.272 136.992C448.744 136.24 448.48 135.148 448.48 133.716C448.48 132.308 448.744 131.232 449.272 130.488C449.808 129.744 450.584 129.372 451.6 129.372C452.616 129.372 453.388 129.744 453.916 130.488C454.452 131.224 454.72 132.3 454.72 133.716C454.72 135.14 454.452 136.228 453.916 136.98C453.388 137.732 452.616 138.108 451.6 138.108ZM451.6 136.896C452.152 136.896 452.552 136.644 452.8 136.14C453.056 135.628 453.184 134.82 453.184 133.716C453.184 132.628 453.056 131.836 452.8 131.34C452.552 130.836 452.152 130.584 451.6 130.584C451.048 130.584 450.644 130.836 450.388 131.34C450.14 131.836 450.016 132.628 450.016 133.716C450.016 134.82 450.14 135.628 450.388 136.14C450.644 136.644 451.048 136.896 451.6 136.896ZM457.535 136.32V138H455.855V136.32H457.535ZM461.807 138.108C460.791 138.108 460.015 137.736 459.479 136.992C458.951 136.24 458.687 135.148 458.687 133.716C458.687 132.308 458.951 131.232 459.479 130.488C460.015 129.744 460.791 129.372 461.807 129.372C462.823 129.372 463.595 129.744 464.123 130.488C464.659 131.224 464.927 132.3 464.927 133.716C464.927 135.14 464.659 136.228 464.123 136.98C463.595 137.732 462.823 138.108 461.807 138.108ZM461.807 136.896C462.359 136.896 462.759 136.644 463.007 136.14C463.263 135.628 463.391 134.82 463.391 133.716C463.391 132.628 463.263 131.836 463.007 131.34C462.759 130.836 462.359 130.584 461.807 130.584C461.255 130.584 460.851 130.836 460.595 131.34C460.347 131.836 460.223 132.628 460.223 133.716C460.223 134.82 460.347 135.628 460.595 136.14C460.851 136.644 461.255 136.896 461.807 136.896ZM471.99 136.74V138H466.254V136.86L469.158 133.728C469.502 133.352 469.754 133.008 469.914 132.696C470.074 132.384 470.154 132.076 470.154 131.772C470.154 131.38 470.038 131.084 469.806 130.884C469.582 130.684 469.258 130.584 468.834 130.584C468.082 130.584 467.31 130.88 466.518 131.472L466.002 130.344C466.338 130.04 466.77 129.8 467.298 129.624C467.826 129.44 468.358 129.348 468.894 129.348C469.75 129.348 470.426 129.56 470.922 129.984C471.426 130.4 471.678 130.964 471.678 131.676C471.678 132.164 471.57 132.624 471.354 133.056C471.146 133.488 470.794 133.972 470.298 134.508L468.198 136.74H471.99ZM479.185 129.456V130.608L475.309 138H473.653L477.517 130.716H473.233V129.456H479.185ZM484.725 133.608C485.229 133.744 485.613 133.992 485.877 134.352C486.149 134.712 486.285 135.156 486.285 135.684C486.285 136.428 486.009 137.016 485.457 137.448C484.913 137.88 484.177 138.096 483.249 138.096C482.673 138.096 482.117 138.008 481.581 137.832C481.053 137.656 480.617 137.412 480.273 137.1L480.801 135.972C481.561 136.564 482.357 136.86 483.189 136.86C483.733 136.86 484.137 136.752 484.401 136.536C484.673 136.32 484.809 135.992 484.809 135.552C484.809 135.12 484.673 134.804 484.401 134.604C484.129 134.396 483.709 134.292 483.141 134.292H482.013V133.056H482.937C484.041 133.056 484.593 132.636 484.593 131.796C484.593 131.404 484.473 131.104 484.233 130.896C483.993 130.688 483.657 130.584 483.225 130.584C482.457 130.584 481.689 130.88 480.921 131.472L480.405 130.344C480.749 130.04 481.181 129.8 481.701 129.624C482.229 129.44 482.769 129.348 483.321 129.348C484.161 129.348 484.829 129.556 485.325 129.972C485.829 130.38 486.081 130.928 486.081 131.616C486.073 132.088 485.949 132.5 485.709 132.852C485.477 133.196 485.149 133.448 484.725 133.608ZM491.128 132.516C491.632 132.516 492.08 132.632 492.472 132.864C492.872 133.096 493.184 133.42 493.408 133.836C493.632 134.252 493.744 134.728 493.744 135.264C493.744 135.808 493.62 136.296 493.372 136.728C493.132 137.16 492.792 137.5 492.352 137.748C491.92 137.988 491.428 138.108 490.876 138.108C489.796 138.108 488.964 137.744 488.38 137.016C487.796 136.28 487.504 135.236 487.504 133.884C487.504 132.94 487.64 132.128 487.912 131.448C488.192 130.768 488.592 130.248 489.112 129.888C489.64 129.528 490.264 129.348 490.984 129.348C491.496 129.348 491.992 129.436 492.472 129.612C492.96 129.78 493.384 130.024 493.744 130.344L493.216 131.472C492.464 130.88 491.74 130.584 491.044 130.584C490.412 130.584 489.924 130.852 489.58 131.388C489.236 131.924 489.056 132.692 489.04 133.692C489.224 133.332 489.504 133.048 489.88 132.84C490.256 132.624 490.672 132.516 491.128 132.516ZM490.804 136.884C491.244 136.884 491.596 136.74 491.86 136.452C492.132 136.164 492.268 135.784 492.268 135.312C492.268 134.84 492.132 134.464 491.86 134.184C491.596 133.896 491.24 133.752 490.792 133.752C490.344 133.752 489.98 133.896 489.7 134.184C489.42 134.472 489.28 134.848 489.28 135.312C489.28 135.776 489.42 136.156 489.7 136.452C489.988 136.74 490.356 136.884 490.804 136.884ZM499.115 133.608C499.619 133.744 500.003 133.992 500.267 134.352C500.539 134.712 500.675 135.156 500.675 135.684C500.675 136.428 500.399 137.016 499.847 137.448C499.303 137.88 498.567 138.096 497.639 138.096C497.063 138.096 496.507 138.008 495.971 137.832C495.443 137.656 495.007 137.412 494.663 137.1L495.191 135.972C495.951 136.564 496.747 136.86 497.579 136.86C498.123 136.86 498.527 136.752 498.791 136.536C499.063 136.32 499.199 135.992 499.199 135.552C499.199 135.12 499.063 134.804 498.791 134.604C498.519 134.396 498.099 134.292 497.531 134.292H496.403V133.056H497.327C498.431 133.056 498.983 132.636 498.983 131.796C498.983 131.404 498.863 131.104 498.623 130.896C498.383 130.688 498.047 130.584 497.615 130.584C496.847 130.584 496.079 130.88 495.311 131.472L494.795 130.344C495.139 130.04 495.571 129.8 496.091 129.624C496.619 129.44 497.159 129.348 497.711 129.348C498.551 129.348 499.219 129.556 499.715 129.972C500.219 130.38 500.471 130.928 500.471 131.616C500.463 132.088 500.339 132.5 500.099 132.852C499.867 133.196 499.539 133.448 499.115 133.608ZM506.431 133.608C506.983 133.744 507.415 133.996 507.727 134.364C508.039 134.732 508.195 135.176 508.195 135.696C508.195 136.184 508.059 136.612 507.787 136.98C507.523 137.34 507.147 137.616 506.659 137.808C506.179 138 505.623 138.096 504.991 138.096C504.359 138.096 503.799 138 503.311 137.808C502.831 137.616 502.455 137.34 502.183 136.98C501.919 136.612 501.787 136.184 501.787 135.696C501.787 135.176 501.943 134.732 502.255 134.364C502.567 133.996 502.999 133.744 503.551 133.608C503.071 133.448 502.691 133.196 502.411 132.852C502.139 132.508 502.003 132.108 502.003 131.652C502.003 131.188 502.131 130.784 502.387 130.44C502.643 130.088 502.995 129.82 503.443 129.636C503.899 129.444 504.415 129.348 504.991 129.348C505.567 129.348 506.079 129.444 506.527 129.636C506.983 129.82 507.339 130.088 507.595 130.44C507.851 130.784 507.979 131.188 507.979 131.652C507.979 132.116 507.839 132.524 507.559 132.876C507.287 133.22 506.911 133.464 506.431 133.608ZM504.991 130.56C504.519 130.56 504.147 130.668 503.875 130.884C503.603 131.1 503.467 131.408 503.467 131.808C503.467 132.184 503.603 132.492 503.875 132.732C504.155 132.964 504.527 133.116 504.991 133.188C505.455 133.116 505.823 132.964 506.095 132.732C506.375 132.492 506.515 132.184 506.515 131.808C506.515 131.408 506.379 131.1 506.107 130.884C505.835 130.668 505.463 130.56 504.991 130.56ZM504.991 136.884C505.535 136.884 505.959 136.772 506.263 136.548C506.575 136.324 506.731 136.004 506.731 135.588C506.731 135.196 506.571 134.88 506.251 134.64C505.939 134.4 505.519 134.244 504.991 134.172C504.463 134.244 504.039 134.4 503.719 134.64C503.407 134.88 503.251 135.196 503.251 135.588C503.251 136.004 503.403 136.324 503.707 136.548C504.019 136.772 504.447 136.884 504.991 136.884Z" fill="#171725"/>
<path d="M452.564 146.469H453.695V152.51C453.695 153.326 453.449 153.965 452.957 154.426C452.469 154.887 451.816 155.117 451 155.117C450.152 155.117 449.492 154.9 449.02 154.467C448.547 154.033 448.311 153.426 448.311 152.645H449.436C449.436 153.133 449.568 153.514 449.834 153.787C450.104 154.061 450.492 154.197 451 154.197C451.465 154.197 451.84 154.051 452.125 153.758C452.414 153.465 452.561 153.055 452.564 152.527V146.469ZM459.355 155C459.293 154.875 459.242 154.652 459.203 154.332C458.699 154.855 458.098 155.117 457.398 155.117C456.773 155.117 456.26 154.941 455.857 154.59C455.459 154.234 455.26 153.785 455.26 153.242C455.26 152.582 455.51 152.07 456.01 151.707C456.514 151.34 457.221 151.156 458.131 151.156H459.186V150.658C459.186 150.279 459.072 149.979 458.846 149.756C458.619 149.529 458.285 149.416 457.844 149.416C457.457 149.416 457.133 149.514 456.871 149.709C456.609 149.904 456.479 150.141 456.479 150.418H455.389C455.389 150.102 455.5 149.797 455.723 149.504C455.949 149.207 456.254 148.973 456.637 148.801C457.023 148.629 457.447 148.543 457.908 148.543C458.639 148.543 459.211 148.727 459.625 149.094C460.039 149.457 460.254 149.959 460.27 150.6V153.518C460.27 154.1 460.344 154.562 460.492 154.906V155H459.355ZM457.557 154.174C457.896 154.174 458.219 154.086 458.523 153.91C458.828 153.734 459.049 153.506 459.186 153.225V151.924H458.336C457.008 151.924 456.344 152.312 456.344 153.09C456.344 153.43 456.457 153.695 456.684 153.887C456.91 154.078 457.201 154.174 457.557 154.174ZM462.994 148.66L463.029 149.457C463.514 148.848 464.146 148.543 464.928 148.543C466.268 148.543 466.943 149.299 466.955 150.811V155H465.871V150.805C465.867 150.348 465.762 150.01 465.555 149.791C465.352 149.572 465.033 149.463 464.6 149.463C464.248 149.463 463.939 149.557 463.674 149.744C463.408 149.932 463.201 150.178 463.053 150.482V155H461.969V148.66H462.994ZM477.045 155H471.455V154.221L474.408 150.939C474.846 150.443 475.146 150.041 475.311 149.732C475.479 149.42 475.562 149.098 475.562 148.766C475.562 148.32 475.428 147.955 475.158 147.67C474.889 147.385 474.529 147.242 474.08 147.242C473.541 147.242 473.121 147.396 472.82 147.705C472.523 148.01 472.375 148.436 472.375 148.982H471.291C471.291 148.197 471.543 147.562 472.047 147.078C472.555 146.594 473.232 146.352 474.08 146.352C474.873 146.352 475.5 146.561 475.961 146.979C476.422 147.393 476.652 147.945 476.652 148.637C476.652 149.477 476.117 150.477 475.047 151.637L472.762 154.115H477.045V155ZM481.756 155H480.666V147.775L478.48 148.578V147.594L481.586 146.428H481.756V155Z" fill="#92929D"/>
<defs>
<filter id="filter0_d" x="475.685" y="177.343" width="19.6122" height="19.6291" filterUnits="userSpaceOnUse" color-interpolation-filters="sRGB">
<feFlood flood-opacity="0" result="BackgroundImageFix"/>
<feColorMatrix in="SourceAlpha" type="matrix" values="0 0 0 0 0 0 0 0 0 0 0 0 0 0 0 0 0 0 127 0"/>
<feOffset dy="1.65728"/>
<feGaussianBlur stdDeviation="1.65728"/>
<feColorMatrix type="matrix" values="0 0 0 0 0.268354 0 0 0 0 0.268354 0 0 0 0 0.31049 0 0 0 0.15 0"/>
<feBlend mode="normal" in2="BackgroundImageFix" result="effect1_dropShadow"/>
<feBlend mode="normal" in="SourceGraphic" in2="effect1_dropShadow" result="shape"/>
</filter>
<filter id="filter1_d" x="425.57" y="105.714" width="118.859" height="84.8592" filterUnits="userSpaceOnUse" color-interpolation-filters="sRGB">
<feFlood flood-opacity="0" result="BackgroundImageFix"/>
<feColorMatrix in="SourceAlpha" type="matrix" values="0 0 0 0 0 0 0 0 0 0 0 0 0 0 0 0 0 0 127 0"/>
<feOffset dy="4.1432"/>
<feGaussianBlur stdDeviation="6.2148"/>
<feColorMatrix type="matrix" values="0 0 0 0 0.268354 0 0 0 0 0.268354 0 0 0 0 0.31049 0 0 0 0.1 0"/>
<feBlend mode="normal" in2="BackgroundImageFix" result="effect1_dropShadow"/>
<feBlend mode="normal" in="SourceGraphic" in2="effect1_dropShadow" result="shape"/>
</filter>
<linearGradient id="paint0_linear" x1="746.027" y1="184" x2="51.9301" y2="213.922" gradientUnits="userSpaceOnUse">
<stop stop-color="#E25957"/>
<stop offset="1" stop-color="#FFC60D"/>
</linearGradient>
</defs>
</svg>